<svg xmlns="http://www.w3.org/2000/svg" width="13" height="16" viewBox="0 0 13 16">
    <path fill="#FFF" fill-rule="nonzero" d="M12.868 12.973l-.873-1.465V7.89c0-2.236-1.68-4.128-3.97-4.72V1.363C8.025.611 7.34 0 6.5 0c-.84 0-1.525.612-1.525 1.363V3.17c-2.29.593-3.97 2.485-3.97 4.721v3.618l-.873 1.465a.813.813 0 0 0 .026.888c.184.274.507.438.864.438h3.466C4.547 15.246 5.427 16 6.5 16s1.953-.754 2.012-1.701h3.466c.357 0 .68-.164.864-.438a.814.814 0 0 0 .026-.888zM5.782 1.363c0-.354.322-.642.718-.642.396 0 .718.288.718.642V3.02a6.163 6.163 0 0 0-1.436 0V1.363zM1.812 7.89c0-2.311 2.103-4.192 4.688-4.192 2.585 0 4.688 1.88 4.688 4.192v3.32H1.812V7.89zM6.5 15.28c-.628 0-1.146-.431-1.203-.98h2.406c-.057.549-.575.98-1.203.98zm5.65-1.79a.202.202 0 0 1-.172.088H1.022a.202.202 0 0 1-.172-.087.162.162 0 0 1-.005-.178l.822-1.381h9.666l.823 1.381a.162.162 0 0 1-.006.178z"/>
</svg>
