<svg xmlns="http://www.w3.org/2000/svg" width="11" height="16" viewBox="0 0 11 16">
    <path fill="#FFF" fill-rule="nonzero" d="M10.567 8.394c-.354-.48-.888-.81-1.601-.99.908-.488 1.308-1.314 1.198-2.481a2.54 2.54 0 0 0-.334-1.1 2.144 2.144 0 0 0-.755-.75 4.04 4.04 0 0 0-1.034-.434 7.793 7.793 0 0 0-1.28-.216V0H5.35v2.356c-.243 0-.615.006-1.115.019V0h-1.41v2.423c-.2.007-.496.01-.887.01L0 2.423V4h1.015c.464 0 .735.218.815.654v2.76c.06 0 .11.003.146.01H1.83v3.865c-.05.326-.226.49-.53.49H.283L0 13.539h1.83c.116 0 .283.001.503.004.22.003.384.005.494.005V16h1.41v-2.423c.255.006.627.01 1.115.01V16h1.409v-2.452c.5-.026.944-.073 1.33-.144.388-.07.759-.181 1.113-.332.353-.15.649-.338.887-.563.238-.224.434-.51.59-.855.155-.347.255-.747.297-1.202.08-.891-.058-1.577-.411-2.058zM4.263 4.106l.362-.005.494-.01c.13-.003.308.005.53.024.223.02.41.045.563.077.152.032.32.085.503.159.183.073.33.163.44.269a1.334 1.334 0 0 1 .393.966c0 .18-.028.343-.083.49a.926.926 0 0 1-.247.37c-.11.1-.222.187-.338.26a1.506 1.506 0 0 1-.444.178c-.18.045-.337.08-.47.106a3.676 3.676 0 0 1-.504.053 9.36 9.36 0 0 1-.883.02l-.316-.006V4.106zm3.847 6.548a1.38 1.38 0 0 1-.224.384 1.28 1.28 0 0 1-.361.289c-.15.083-.295.15-.435.202a3.36 3.36 0 0 1-.507.134 6.367 6.367 0 0 1-1.057.12 11.425 11.425 0 0 1-.924.01l-.339-.005v-3.25c.049 0 .194-.003.435-.01.24-.006.437-.009.59-.009.152 0 .363.01.631.029.268.02.494.048.677.086.183.039.383.098.6.178.216.08.391.178.526.293.134.116.246.263.338.443.092.18.137.384.137.615 0 .18-.029.343-.087.49z"/>
</svg>
