<svg xmlns="http://www.w3.org/2000/svg" width="22" height="29" viewBox="0 0 22 29"><g><g><path fill="#fff" d="M20.9 4.452H1.1V2.783c0-.917.742-1.668 1.65-1.668h16.5c.907 0 1.65.751 1.65 1.668zm0 12.279H1.1V5.577h19.8zm0 6.134c0 .92-.743 1.673-1.65 1.673H3.025c-.88 0-1.925-.752-1.925-1.673v-5.019h19.8zm-1.1 4.177a.814.814 0 0 1-.825.833h-.55a.814.814 0 0 1-.825-.833v-1.388h1.65c.193 0 .385-.028.55-.056zm-15.4.006a.816.816 0 0 1-.825.837h-.55a.816.816 0 0 1-.825-.837v-1.534c.275.084.55.14.825.14H4.4zM19.25 0H2.75C1.238 0 0 1.255 0 2.788v20.077c0 .865.468 1.59 1.127 2.092 0 .028-.027.083-.027.14v1.951C1.1 28.136 1.952 29 3.025 29h.55c1.073 0 1.925-.864 1.925-1.952v-1.394h11v1.394c0 1.088.853 1.952 1.925 1.952h.55c1.073 0 1.925-.864 1.925-1.952v-1.952c.66-.502 1.1-1.31 1.1-2.23V2.787C22 1.255 20.763 0 19.25 0z"/></g></g></svg>