<svg xmlns="http://www.w3.org/2000/svg" width="19" height="23" viewBox="0 0 19 23">
    <g fill="#7D7098" fill-rule="evenodd">
        <path d="M15.953 6.815H9.5a.448.448 0 0 0 0 .897h6.453a.448.448 0 0 0 0-.897zM14.385 9.098a.451.451 0 0 0-.634 0 .452.452 0 0 0 0 .634.451.451 0 0 0 .634 0 .452.452 0 0 0 0-.634zM9.816 2.06a.451.451 0 0 0-.633 0 .452.452 0 0 0 0 .633.451.451 0 0 0 .633 0 .452.452 0 0 0 0-.634zM12.183 8.967H9.5a.448.448 0 0 0 0 .897h2.683a.448.448 0 0 0 0-.897zM15.953 11.657H9.5a.448.448 0 0 0 0 .897h6.453a.448.448 0 0 0 0-.897zM14.385 13.94a.451.451 0 0 0-.634 0 .452.452 0 0 0 0 .634.451.451 0 0 0 .634 0 .452.452 0 0 0 0-.634zM12.183 13.809H9.5a.448.448 0 0 0 0 .897h2.683a.448.448 0 0 0 0-.897zM15.953 16.499H9.5a.448.448 0 0 0 0 .897h6.453a.448.448 0 0 0 0-.897zM14.385 18.782a.451.451 0 0 0-.634 0 .452.452 0 0 0 0 .634.451.451 0 0 0 .634 0 .452.452 0 0 0 0-.634zM12.183 18.651H9.5a.448.448 0 0 0 0 .897h2.683a.448.448 0 0 0 0-.897z"/>
        <path fill-rule="nonzero" d="M16.815 1.749h-3.423a2.745 2.745 0 0 0-1.899-.763h-.392A1.798 1.798 0 0 0 9.5 0c-.684 0-1.3.392-1.6.986h-.394c-.736 0-1.405.29-1.9.763H2.186C.98 1.749 0 2.729 0 3.935v16.834c0 1.206.98 2.186 2.185 2.186h14.63c1.205 0 2.185-.98 2.185-2.186V3.935c0-1.206-.98-2.186-2.185-2.186zm-9.31.134h.7a.448.448 0 0 0 .431-.329A.898.898 0 0 1 9.5.897c.402 0 .757.27.864.657.053.194.23.329.432.329h.697c.973 0 1.773.751 1.853 1.704H5.653c.08-.953.88-1.704 1.853-1.704zm10.599 18.886c0 .711-.578 1.29-1.289 1.29H2.185a1.29 1.29 0 0 1-1.289-1.29V3.935c0-.711.578-1.29 1.289-1.29h2.794a2.742 2.742 0 0 0-.229 1.099v.291c0 .248.2.448.448.448h8.603c.247 0 .448-.2.448-.448v-.291c0-.39-.082-.762-.229-1.099h2.795c.71 0 1.289.579 1.289 1.29v16.834z"/>
        <path d="M6.65 6.707a.448.448 0 0 0-.633 0L4.1 8.624l-.59-.59a.448.448 0 1 0-.635.634l.908.907a.447.447 0 0 0 .633 0L6.65 7.341a.449.449 0 0 0 0-.634z"/>
        <path fill-rule="nonzero" d="M5.557 16.499H3.406c-.248 0-.448.2-.448.448V19.1c0 .248.2.449.448.449h2.15c.248 0 .449-.201.449-.449v-2.152c0-.247-.2-.448-.448-.448zm-.448 2.152H3.854v-1.255h1.255v1.255zM5.557 11.657H3.406c-.248 0-.448.2-.448.448v2.152c0 .248.2.449.448.449h2.15c.248 0 .449-.201.449-.449v-2.152c0-.247-.2-.448-.448-.448zm-.448 2.152H3.854v-1.255h1.255v1.255z"/>
    </g>
</svg>
