<svg xmlns="http://www.w3.org/2000/svg" width="20" height="20" viewBox="0 0 20 20">
    <g fill="#7D7098" fill-rule="evenodd">
        <path fill-rule="nonzero" d="M19.484 6.294a1.76 1.76 0 0 0-2.486 0l-1.763 1.764V3.415c0-.47-.183-.91-.515-1.243L13.063.515A1.746 1.746 0 0 0 11.82 0H1.759A1.76 1.76 0 0 0 0 1.758v16.484C0 19.212.789 20 1.759 20h11.718a1.76 1.76 0 0 0 1.758-1.758v-5.21l4.249-4.252a1.757 1.757 0 0 0 0-2.486zm-7.765-5.122c.111 0 .325-.02.515.171l1.658 1.658c.186.186.171.39.171.515H11.72V1.172zm2.344 17.07a.587.587 0 0 1-.586.586H1.76a.587.587 0 0 1-.586-.586V1.758c0-.323.262-.586.586-.586h8.789v2.93c0 .323.262.585.586.585h2.93v4.544l-1.73 1.73-.828.829a.586.586 0 0 0-.141.229l-.829 2.486a.586.586 0 0 0 .741.741l2.486-.829a.585.585 0 0 0 .23-.141l.07-.071v4.037zm-1.314-6.038l.829.829-.317.316-1.243.415.415-1.243.316-.317zm1.657 0l-.828-.829 2.816-2.819.829.829-2.817 2.819zm4.25-4.253l-.605.605-.828-.829.604-.604a.587.587 0 0 1 .828.828z"/>
        <path d="M11.134 5.86H2.93a.586.586 0 0 0 0 1.171h8.204a.586.586 0 0 0 0-1.172zM8.79 8.203H2.93a.586.586 0 0 0 0 1.172h5.86a.586.586 0 0 0 0-1.172zM8.79 10.547H2.93a.586.586 0 0 0 0 1.172h5.86a.586.586 0 0 0 0-1.172zM8.79 12.89H2.93a.586.586 0 0 0 0 1.172h5.86a.586.586 0 0 0 0-1.171zM11.134 16.484H7.618a.586.586 0 0 0 0 1.172h3.516a.586.586 0 0 0 0-1.172z"/>
    </g>
</svg>
