<svg xmlns="http://www.w3.org/2000/svg" width="17" height="14" viewBox="0 0 17 14">
    <g fill="#FFF" fill-rule="evenodd">
        <path fill-rule="nonzero" d="M9.049 9.695h4.524c.17 0 .283-.114.283-.285V6.843c0-.17-.113-.285-.283-.285H9.05c-.17 0-.283.114-.283.285V9.41c0 .17.113.285.283.285zm.283-2.566h3.959v1.995H9.33V7.13z"/>
        <path d="M1.414 5.988h2.262c.17 0 .283-.114.283-.285 0-.171-.113-.285-.283-.285H1.414c-.17 0-.283.114-.283.285 0 .171.113.285.283.285zM4.807 5.988H7.07c.17 0 .282-.114.282-.285 0-.171-.113-.285-.282-.285H4.807c-.17 0-.282.114-.282.285 0 .171.113.285.282.285zM1.414 7.129H5.09c.17 0 .283-.114.283-.286 0-.17-.113-.285-.283-.285H1.414c-.17 0-.283.114-.283.285 0 .172.113.286.283.286zM7.07 6.558H6.22c-.17 0-.283.114-.283.285 0 .171.114.286.283.286h.849c.17 0 .282-.115.282-.286 0-.17-.113-.285-.282-.285z"/>
        <path fill-rule="nonzero" d="M16.712 3.023a1.051 1.051 0 0 0-.763-.428l-.679-.083V1.141A1.14 1.14 0 0 0 14.14 0H1.13A1.14 1.14 0 0 0 0 1.14V10.265c0 .515.343.953.81 1.093a1.106 1.106 0 0 0 1 1.13l13.064 1.483h.113c.566 0 1.075-.427 1.132-.969l.848-9.152a1.114 1.114 0 0 0-.255-.827zM.566 1.996h14.139v1.712H.565V1.995zM1.13.571H14.14a.57.57 0 0 1 .566.57v.285H.565v-.285a.57.57 0 0 1 .566-.57zm-.565 9.694V4.277h14.139v5.988a.57.57 0 0 1-.566.57H1.131a.57.57 0 0 1-.565-.57zM16.4 3.735l-.848 9.153a.572.572 0 0 1-.622.513L1.895 11.92a.574.574 0 0 1-.51-.514H14.14a1.14 1.14 0 0 0 1.131-1.14V3.052l.65.056c.142 0 .283.086.368.2a.58.58 0 0 1 .113.428z"/>
    </g>
</svg>
