<svg xmlns="http://www.w3.org/2000/svg" width="20" height="20" viewBox="0 0 20 20"><defs><clipPath id="8i7ea"><path fill="#fff" d="M8.62 17.983V1.017h10.76v16.966zm9.268-6.85a2.985 2.985 0 0 0-.27-.641 2.179 2.179 0 0 0-.455-.532 5.405 5.405 0 0 0-.531-.418 5.219 5.219 0 0 0-.648-.356 11.738 11.738 0 0 0-.651-.293c-.16-.064-.392-.152-.695-.264a13.412 13.412 0 0 1-1.119-.456 3.045 3.045 0 0 1-.48-.26 3.755 3.755 0 0 1-.338-.275.943.943 0 0 1-.253-.348 1.084 1.084 0 0 1-.073-.402c0-.379.171-.689.514-.929.343-.24.786-.36 1.33-.36.24 0 .484.032.732.097a3.896 3.896 0 0 1 1.14.485c.158.098.27.172.335.222.066.05.107.084.124.1a.278.278 0 0 0 .232.06c.086-.007.151-.051.197-.135l.695-1.222c.068-.112.054-.218-.043-.318a2.911 2.911 0 0 0-.129-.117 4.447 4.447 0 0 0-.334-.243 4.162 4.162 0 0 0-.545-.314 5.588 5.588 0 0 0-.746-.28 4.857 4.857 0 0 0-.947-.193V2.268a.258.258 0 0 0-.077-.193.27.27 0 0 0-.198-.075h-1.157a.267.267 0 0 0-.193.08.255.255 0 0 0-.081.188v1.507c-.898.167-1.627.54-2.187 1.121-.56.58-.84 1.256-.84 2.026 0 .229.024.446.073.653.048.206.108.392.18.556.071.165.173.327.304.486.132.159.256.296.373.41.117.114.27.233.459.356.189.123.35.222.484.297.135.075.313.162.536.26.223.097.4.17.528.221.128.05.304.12.527.21.309.116.537.207.686.271.149.065.337.154.566.268.229.115.396.22.502.314.105.095.201.212.287.352.086.14.129.287.129.443 0 .441-.176.782-.528 1.021-.351.24-.759.36-1.222.36-.211 0-.423-.022-.634-.066-.743-.146-1.438-.495-2.083-1.047l-.018-.017a.215.215 0 0 0-.205-.075c-.092.011-.158.045-.198.1l-.883 1.13c-.085.112-.08.227.017.344.03.033.08.084.15.15.072.068.205.172.4.315.194.142.405.276.634.402.228.125.518.25.87.372.352.123.716.209 1.093.26v1.464c0 .073.027.135.082.189.054.053.118.079.193.079h1.157a.27.27 0 0 0 .197-.075.257.257 0 0 0 .077-.193v-1.465c.91-.145 1.648-.526 2.217-1.142A3.142 3.142 0 0 0 18 11.919a2.69 2.69 0 0 0-.112-.787z"/></clipPath></defs><g><g><g transform="rotate(-90 7.5 10.5)"><path fill="#fff" d="M16.786 7.975L12.037 3.21a.677.677 0 0 0-1.158.482v2.042H6.13a.68.68 0 0 0-.678.681c0 .376.304.681.678.681h5.428a.68.68 0 0 0 .678-.68v-1.08l3.111 3.122-3.111 3.122V10.5a.68.68 0 0 0-.678-.68H4.095V7.775a.68.68 0 0 0-1.158-.482L-1.81 12.06a.683.683 0 0 0 0 .963l4.748 4.766a.677.677 0 0 0 1.158-.481v-2.043h4.749a.68.68 0 0 0 .678-.68.68.68 0 0 0-.678-.682l-6.105 1.761-3.112-3.122L2.74 9.419v1.08c0 .376.303.681.678.681h7.462v2.043a.68.68 0 0 0 1.158.481l4.749-4.766a.683.683 0 0 0 0-.963z"/></g><g><g><path fill="#fff" d="M17.888 11.132a2.985 2.985 0 0 0-.27-.64 2.179 2.179 0 0 0-.455-.532 5.405 5.405 0 0 0-.531-.418 5.219 5.219 0 0 0-.648-.356 11.738 11.738 0 0 0-.651-.293c-.16-.064-.392-.152-.695-.264a13.412 13.412 0 0 1-1.119-.456 3.045 3.045 0 0 1-.48-.26 3.755 3.755 0 0 1-.338-.275.943.943 0 0 1-.253-.348 1.084 1.084 0 0 1-.073-.402c0-.379.171-.689.514-.929.343-.24.786-.36 1.33-.36.24 0 .484.032.732.097a3.896 3.896 0 0 1 1.14.485c.158.098.27.172.335.222.066.05.107.084.124.1a.278.278 0 0 0 .232.06c.086-.007.151-.051.197-.135l.695-1.222c.068-.112.054-.218-.043-.318a2.911 2.911 0 0 0-.129-.117 4.447 4.447 0 0 0-.334-.243 4.162 4.162 0 0 0-.545-.314 5.588 5.588 0 0 0-.746-.28 4.857 4.857 0 0 0-.947-.193V2.268a.258.258 0 0 0-.077-.193.27.27 0 0 0-.198-.075h-1.157a.267.267 0 0 0-.193.08.255.255 0 0 0-.081.188v1.507c-.898.167-1.627.54-2.187 1.121-.56.58-.84 1.256-.84 2.026 0 .229.024.446.073.653.048.206.108.392.18.556.071.165.173.327.304.486.132.159.256.296.373.41.117.114.27.233.459.356.189.123.35.222.484.297.135.075.313.162.536.26.223.097.4.17.528.221.128.05.304.12.527.21.309.116.537.207.686.271.149.065.337.154.566.268.229.115.396.22.502.314.105.095.201.212.287.352.086.14.129.287.129.443 0 .441-.176.782-.528 1.021-.351.24-.759.36-1.222.36-.211 0-.423-.022-.634-.066-.743-.146-1.438-.495-2.083-1.047l-.018-.017a.215.215 0 0 0-.205-.075c-.092.011-.158.045-.198.1l-.883 1.13c-.085.112-.08.227.017.344.03.033.08.084.15.15.072.068.205.172.4.315.194.142.405.276.634.402.228.125.518.25.87.372.352.123.716.209 1.093.26v1.464c0 .073.027.135.082.189.054.053.118.079.193.079h1.157a.27.27 0 0 0 .197-.075.257.257 0 0 0 .077-.193v-1.465c.91-.145 1.648-.526 2.217-1.142A3.142 3.142 0 0 0 18 11.919a2.69 2.69 0 0 0-.112-.787z"/><path fill="none" stroke="#3b2665" stroke-miterlimit="50" stroke-width="2.96" d="M17.888 11.132a2.985 2.985 0 0 0-.27-.64 2.179 2.179 0 0 0-.455-.532 5.405 5.405 0 0 0-.531-.418 5.219 5.219 0 0 0-.648-.356 11.738 11.738 0 0 0-.651-.293c-.16-.064-.392-.152-.695-.264a13.412 13.412 0 0 1-1.119-.456 3.045 3.045 0 0 1-.48-.26 3.755 3.755 0 0 1-.338-.275.943.943 0 0 1-.253-.348 1.084 1.084 0 0 1-.073-.402c0-.379.171-.689.514-.929.343-.24.786-.36 1.33-.36.24 0 .484.032.732.097a3.896 3.896 0 0 1 1.14.485c.158.098.27.172.335.222.066.05.107.084.124.1a.278.278 0 0 0 .232.06c.086-.007.151-.051.197-.135l.695-1.222c.068-.112.054-.218-.043-.318a2.911 2.911 0 0 0-.129-.117 4.447 4.447 0 0 0-.334-.243 4.162 4.162 0 0 0-.545-.314 5.588 5.588 0 0 0-.746-.28 4.857 4.857 0 0 0-.947-.193V2.268a.258.258 0 0 0-.077-.193.27.27 0 0 0-.198-.075h-1.157a.267.267 0 0 0-.193.08.255.255 0 0 0-.081.188v1.507c-.898.167-1.627.54-2.187 1.121-.56.58-.84 1.256-.84 2.026 0 .229.024.446.073.653.048.206.108.392.18.556.071.165.173.327.304.486.132.159.256.296.373.41.117.114.27.233.459.356.189.123.35.222.484.297.135.075.313.162.536.26.223.097.4.17.528.221.128.05.304.12.527.21.309.116.537.207.686.271.149.065.337.154.566.268.229.115.396.22.502.314.105.095.201.212.287.352.086.14.129.287.129.443 0 .441-.176.782-.528 1.021-.351.24-.759.36-1.222.36-.211 0-.423-.022-.634-.066-.743-.146-1.438-.495-2.083-1.047l-.018-.017a.215.215 0 0 0-.205-.075c-.092.011-.158.045-.198.1l-.883 1.13c-.085.112-.08.227.017.344.03.033.08.084.15.15.072.068.205.172.4.315.194.142.405.276.634.402.228.125.518.25.87.372.352.123.716.209 1.093.26v1.464c0 .073.027.135.082.189.054.053.118.079.193.079h1.157a.27.27 0 0 0 .197-.075.257.257 0 0 0 .077-.193v-1.465c.91-.145 1.648-.526 2.217-1.142A3.142 3.142 0 0 0 18 11.919a2.69 2.69 0 0 0-.112-.787z" clip-path="url(&quot;#8i7ea&quot;)"/></g></g></g></g></svg>