<svg xmlns="http://www.w3.org/2000/svg" width="18" height="16" viewBox="0 0 18 16">
    <g fill="#7D7098" fill-rule="evenodd">
        <path d="M5.836 1.74a.35.35 0 0 1-.352.347.35.35 0 0 1-.351-.348.35.35 0 0 1 .351-.348.35.35 0 0 1 .352.348zM4.43 1.74a.35.35 0 0 1-.352.347.35.35 0 0 1-.351-.348.35.35 0 0 1 .351-.348.35.35 0 0 1 .352.348zM3.023 1.74a.35.35 0 0 1-.351.347.35.35 0 0 1-.352-.348.35.35 0 0 1 .352-.348.35.35 0 0 1 .351.348z"/>
        <path fill-rule="nonzero" d="M15.328 4.87H2.672a.35.35 0 0 0-.352.347v2.087a.35.35 0 0 0 .352.348h12.656a.35.35 0 0 0 .352-.348V5.217a.35.35 0 0 0-.352-.347zm-.351 2.087H3.023V5.565h11.954v1.392zM9 9.043H2.672a.35.35 0 0 0-.352.348v4.174a.35.35 0 0 0 .352.348H9a.35.35 0 0 0 .352-.348V9.391A.35.35 0 0 0 9 9.043zm-.352 4.174H3.023V9.74h5.625v3.478zM15.328 9.043H11.11a.35.35 0 0 0-.351.348v4.174a.35.35 0 0 0 .351.348h4.22a.35.35 0 0 0 .35-.348V9.391a.35.35 0 0 0-.35-.348zm-.351 4.174H11.46V9.74h3.516v3.478z"/>
        <path d="M9.352.348A.35.35 0 0 1 9 .696a.35.35 0 0 1-.352-.348A.35.35 0 0 1 9 0a.35.35 0 0 1 .352.348z"/>
        <path fill-rule="nonzero" d="M16.945 0h-6.363a.35.35 0 0 0-.352.348.35.35 0 0 0 .352.348h6.363a.35.35 0 0 1 .352.347v1.74H.703v-1.74a.35.35 0 0 1 .352-.347h6.363A.35.35 0 0 0 7.77.348.35.35 0 0 0 7.418 0H1.055A1.05 1.05 0 0 0 0 1.043v13.914A1.05 1.05 0 0 0 1.055 16h15.89A1.05 1.05 0 0 0 18 14.957V1.043A1.05 1.05 0 0 0 16.945 0zm0 15.304H1.055a.35.35 0 0 1-.352-.347V3.478h16.594v11.479a.35.35 0 0 1-.352.347z"/>
    </g>
</svg>
