<svg xmlns="http://www.w3.org/2000/svg" width="17" height="17" viewBox="0 0 17 17">
    <g fill="#7D7098" fill-rule="evenodd">
        <path d="M2.765 8.899a.498.498 0 0 0 .352-.145L6.749 5.15l1.64 1.628a.5.5 0 0 0 .704 0l5.127-5.09v.785c0 .273.223.494.498.494a.496.496 0 0 0 .498-.494V.494l-.003-.048-.003-.024-.004-.024L15.2.37 15.195.35l-.01-.029-.007-.016-.013-.029-.007-.014a.517.517 0 0 0-.019-.031l-.006-.01a.508.508 0 0 0-.1-.11L15.031.11a.523.523 0 0 0-.039-.029l-.01-.006a.523.523 0 0 0-.032-.018L14.937.05a.465.465 0 0 0-.03-.014l-.016-.006-.03-.01-.018-.005c-.01-.002-.018-.005-.028-.006L14.79.006l-.024-.004a.519.519 0 0 0-.05-.002h-1.991a.496.496 0 0 0-.498.494c0 .274.222.495.498.495h.79L8.74 5.728 7.101 4.1a.5.5 0 0 0-.704 0L2.413 8.055a.492.492 0 0 0 0 .7.498.498 0 0 0 .352.144zM0 16.442c0 .273.223.495.498.495h3.984a.496.496 0 0 0 .498-.495v-.692H0v.692zM4.482 13.5H.498a.496.496 0 0 0-.498.494v.693h4.98v-.693a.496.496 0 0 0-.498-.494zM5.667 16.442c0 .273.222.495.498.495h3.984a.496.496 0 0 0 .498-.495v-.692h-4.98v.692zM11.333 13.5h4.98v1.187h-4.98zM15.816 6.75H11.83a.496.496 0 0 0-.498.494v.693h4.98v-.693a.496.496 0 0 0-.497-.494zM11.333 9h4.98v1.187h-4.98zM11.333 11.25h4.98v1.187h-4.98zM11.333 16.442c0 .273.223.495.498.495h3.985a.496.496 0 0 0 .498-.495v-.692h-4.98v.692zM5.667 13.5h4.98v1.187h-4.98zM10.15 11.25H6.164a.496.496 0 0 0-.498.494v.693h4.98v-.693a.496.496 0 0 0-.498-.494z"/>
    </g>
</svg>
