<svg xmlns="http://www.w3.org/2000/svg" width="24" height="18" viewBox="0 0 24 18">
    <g fill="#FFF" fill-rule="evenodd">
        <path fill-rule="nonzero" d="M21.04.037H2.93C1.315.037 0 1.329 0 2.92v12.175c0 1.59 1.314 2.883 2.93 2.883h18.105c1.616 0 2.93-1.293 2.93-2.883V2.925C23.97 1.334 22.656.036 21.04.036zm1.591 15.058c0 .864-.714 1.566-1.591 1.566H2.93c-.877 0-1.591-.702-1.591-1.566V2.925c0-.864.714-1.566 1.592-1.566h18.104c.877 0 1.591.702 1.591 1.565v12.171h.005z"/>
        <path d="M15.114 8.856l5.861-5.17a.654.654 0 0 0 .05-.932.68.68 0 0 0-.947-.05l-8.083 7.137-1.577-1.385c-.005-.005-.01-.01-.01-.015a.987.987 0 0 0-.109-.092L3.883 2.7a.676.676 0 0 0-.947.054.65.65 0 0 0 .054.931L8.92 8.9l-5.905 5.439a.654.654 0 0 0-.03.932.677.677 0 0 0 .947.034l5.995-5.517 1.627 1.43a.675.675 0 0 0 .892-.006l1.671-1.473 5.96 5.57c.13.123.298.181.462.181a.674.674 0 0 0 .486-.205.654.654 0 0 0-.025-.931l-5.886-5.498z"/>
    </g>
</svg>
