<svg xmlns="http://www.w3.org/2000/svg" width="19" height="19" viewBox="0 0 19 19"><g><g><g><g><path fill="#fff" d="M11.65 10.144c.085-1.375-.988-2.508-2.286-2.421-1.073.074-1.943.992-2.01 2.129-.085 1.375.988 2.508 2.286 2.421 1.069-.07 1.94-.988 2.01-2.129zm-1.884 4.071c-2.413.16-4.405-1.941-4.254-4.496.125-2.106 1.74-3.813 3.732-3.944 2.413-.16 4.405 1.941 4.254 4.496-.129 2.101-1.744 3.808-3.732 3.944zM9.5 4C5.87 4 2.578 6.104.149 9.522a.835.835 0 0 0 0 .952C2.578 13.896 5.869 16 9.5 16c3.63 0 6.922-2.104 9.351-5.522a.835.835 0 0 0 0-.952C16.422 6.104 13.131 4 9.5 4z"/></g></g><g transform="rotate(-42 9.5 10)"><path fill="#fff" d="M8.1-1.16h2v22h-2z"/><path fill="none" stroke="#4d3779" stroke-miterlimit="50" d="M8.1-1.16v0h2v22h-2v0z"/></g></g></g></svg>