<svg xmlns="http://www.w3.org/2000/svg" width="19" height="12" viewBox="0 0 19 12"><g><g><path fill="#fff" d="M11.65 6.144c.085-1.375-.988-2.508-2.286-2.421-1.073.074-1.943.992-2.01 2.129-.085 1.375.988 2.508 2.286 2.421 1.069-.07 1.94-.988 2.01-2.129zm-1.884 4.071c-2.413.16-4.405-1.941-4.254-4.496.125-2.106 1.74-3.813 3.732-3.944 2.413-.16 4.405 1.941 4.254 4.496-.129 2.101-1.744 3.808-3.732 3.944zM9.5 0C5.87 0 2.578 2.104.149 5.522a.835.835 0 0 0 0 .952C2.578 9.896 5.869 12 9.5 12c3.63 0 6.922-2.104 9.351-5.522a.835.835 0 0 0 0-.952C16.422 2.104 13.131 0 9.5 0z"/></g></g></svg>