<svg xmlns="http://www.w3.org/2000/svg" width="32" height="21" viewBox="0 0 32 21"><g><g><path fill="#e0d0ff" d="M29.99 18.431c-.239.555-.557.872-.954.991-.437.12-.994.04-1.63-.198-1.391-.555-3.021-1.784-4.611-3.29-1.51-1.507-4.174-2.26-6.837-2.26-2.664 0-5.327.753-6.877 2.18-1.63 1.507-3.26 2.775-4.612 3.29-.636.239-1.192.358-1.63.199-.397-.119-.715-.436-.954-.991-.318-.753-.477-1.982-.397-3.806.08-1.705.358-3.647.835-5.47.437-1.706.994-3.291 1.67-4.48 2.186-3.926 4.73-3.291 7.75-2.498 1.233.317 2.505.634 3.897.753h.596c1.43-.12 2.703-.436 3.935-.753 3.021-.754 5.565-1.428 7.752 2.497.676 1.19 1.232 2.736 1.67 4.48.437 1.824.755 3.727.834 5.471.08 1.824-.08 3.053-.437 3.885zm1.908-3.971c-.08-1.823-.398-3.844-.875-5.746-.477-1.822-1.073-3.526-1.788-4.834C26.452-.993 23.43-.24 19.813.71c-1.152.278-2.385.595-3.657.714h-.397c-1.272-.12-2.505-.436-3.657-.714C8.484-.2 5.463-.993 2.68 3.92 1.965 5.227 1.329 6.93.89 8.754c-.476 1.902-.794 3.923-.874 5.745-.08 2.02.12 3.487.557 4.517.437.951 1.073 1.545 1.908 1.783.755.198 1.63.119 2.544-.277 1.55-.634 3.339-1.981 5.088-3.606 1.232-1.189 3.538-1.783 5.844-1.783 2.305 0 4.61.594 5.843 1.783 1.75 1.625 3.538 2.972 5.088 3.606.914.356 1.789.475 2.544.277.795-.238 1.471-.792 1.908-1.822.438-.991.636-2.457.557-4.517z"/></g></g></svg>