<svg xmlns="http://www.w3.org/2000/svg" width="32" height="21" viewBox="0 0 32 21"><g><g><g><path fill="#e0d0ff" d="M29.99 18.431c-.239.555-.557.872-.954.991-.437.12-.994.04-1.63-.198-1.391-.555-3.021-1.784-4.611-3.29-1.51-1.507-4.174-2.26-6.837-2.26-2.664 0-5.327.753-6.877 2.18-1.63 1.507-3.26 2.775-4.612 3.29-.636.239-1.192.358-1.63.199-.397-.119-.715-.436-.954-.991-.318-.753-.477-1.982-.397-3.806.08-1.705.358-3.647.835-5.47.437-1.706.994-3.291 1.67-4.48 2.186-3.926 4.73-3.291 7.75-2.498 1.233.317 2.505.634 3.897.753h.596c1.43-.12 2.703-.436 3.935-.753 3.021-.754 5.565-1.428 7.752 2.497.676 1.19 1.232 2.736 1.67 4.48.437 1.824.755 3.727.834 5.471.08 1.824-.08 3.053-.437 3.885zm1.908-3.971c-.08-1.823-.398-3.844-.875-5.746-.477-1.822-1.073-3.526-1.788-4.834C26.452-.993 23.43-.24 19.813.71c-1.152.278-2.385.595-3.657.714h-.397c-1.272-.12-2.505-.436-3.657-.714C8.484-.2 5.463-.993 2.68 3.92 1.965 5.227 1.329 6.93.89 8.754c-.476 1.902-.794 3.923-.874 5.745-.08 2.02.12 3.487.557 4.517.437.951 1.073 1.545 1.908 1.783.755.198 1.63.119 2.544-.277 1.55-.634 3.339-1.981 5.088-3.606 1.232-1.189 3.538-1.783 5.844-1.783 2.305 0 4.61.594 5.843 1.783 1.75 1.625 3.538 2.972 5.088 3.606.914.356 1.789.475 2.544.277.795-.238 1.471-.792 1.908-1.822.438-.991.636-2.457.557-4.517z"/></g><g><path fill="#e0d0ff" d="M11.304 8.952a.81.81 0 0 1-.596.238h-.557a.753.753 0 0 0-.754.753v.515c0 .238-.08.436-.239.594a.81.81 0 0 1-.596.238.81.81 0 0 1-.834-.832v-.555a.753.753 0 0 0-.755-.752h-.556a.81.81 0 0 1-.596-.238.802.802 0 0 1-.239-.555c0-.238.08-.436.239-.594l.04-.04a.95.95 0 0 1 .556-.198h.556a.753.753 0 0 0 .755-.753V6.22a.81.81 0 0 1 .834-.832.81.81 0 0 1 .596.237l.04.04c.12.158.199.356.199.555v.554c0 .396.317.753.754.753h.557a.81.81 0 0 1 .834.832c0 .238-.08.436-.238.594zm.995-2.218c-.398-.357-.875-.634-1.431-.674a2.251 2.251 0 0 0-.636-1.387l-.04-.04a2.255 2.255 0 0 0-1.63-.673c-.636 0-1.232.277-1.63.674-.357.356-.636.871-.675 1.426-.557.04-1.034.277-1.431.634l-.04.04a2.24 2.24 0 0 0-.676 1.624c0 .634.278 1.228.676 1.625a2.22 2.22 0 0 0 1.47.673c.04.555.279 1.07.676 1.427.438.435.994.673 1.63.673a2.35 2.35 0 0 0 1.63-.673c.358-.397.636-.872.676-1.427a2.123 2.123 0 0 0 1.43-.673 2.24 2.24 0 0 0 .677-1.625c0-.634-.279-1.228-.676-1.624z"/></g><g><path fill="#e0d0ff" d="M22.871 6.934c.769 0 1.392-.621 1.392-1.387S23.64 4.16 22.87 4.16c-.768 0-1.391.62-1.391 1.387 0 .766.623 1.387 1.391 1.387z"/></g><g><path fill="#e0d0ff" d="M22.871 12.554c.769 0 1.392-.621 1.392-1.387S23.64 9.78 22.87 9.78c-.768 0-1.391.62-1.391 1.387 0 .766.623 1.387 1.391 1.387z"/></g><g><path fill="#e0d0ff" d="M20.051 9.744c.769 0 1.392-.621 1.392-1.387S20.82 6.97 20.05 6.97c-.768 0-1.391.62-1.391 1.387 0 .766.623 1.387 1.391 1.387z"/></g><g><path fill="#e0d0ff" d="M25.701 9.744c.769 0 1.392-.621 1.392-1.387S26.47 6.97 25.7 6.97c-.768 0-1.391.62-1.391 1.387 0 .766.623 1.387 1.391 1.387z"/></g></g></g></svg>