<svg xmlns="http://www.w3.org/2000/svg" width="36" height="37" viewBox="0 0 36 37"><g><g><path fill="#fff" d="M19.077 22.807a1.434 1.434 0 0 1-2.17 0 .548.548 0 0 1 .052-.769.537.537 0 0 1 .762.053.355.355 0 0 0 .541 0 .537.537 0 0 1 .762-.053.548.548 0 0 1 .053.77zM15.944 22v.427a.54.54 0 1 1-1.08 0V22a.54.54 0 1 1 1.08 0zm18.8-4.575a.464.464 0 0 0 .102-.399c-.016-.089-.329-.38-1.53-.553-.835-.12-1.986-.158-3.077-.1a.545.545 0 0 1-.48-.239c-.124-.184-.47-.303-.95-.325a.2.2 0 0 0-.144.053.176.176 0 0 0-.058.13c-.006 2.294-.96 3.57-1.761 4.237-1.033.86-2.346 1.17-3.342 1.12v3.702c.344.452.636.6.794.62.15-.235.288-1.209.053-2.504a.54.54 0 0 1 .289-.579.545.545 0 0 1 .64.11 9.545 9.545 0 0 0 2.226 1.7c.73.389 1.224.467 1.427.374-.038-.267-.46-1.005-1.356-1.941a.539.539 0 0 1-.049-.686.545.545 0 0 1 .667-.18c1.65.744 3.47 1.052 3.922.89-.035-.272-.553-.85-1.732-1.457a.54.54 0 0 1 .332-1.015c2.034.31 3.18-.315 3.313-.585-.048-.068-.321-.363-1.543-.661a.541.541 0 0 1 .104-1.066c1.528-.07 2.015-.475 2.153-.646zm-11.569 11.84c0-.47-.108-.931-.311-1.35a2.122 2.122 0 0 1-1.502.621h-.297c.154.208.241.463.241.73v.907c0 .516.42.935.935.935.515 0 .934-.42.934-.935zm-3.738-1.813h1.927c.58 0 1.051-.468 1.051-1.044v-8.09a.22.22 0 0 0-.22-.219h-.6-.001H14.412h-.002-.602a.22.22 0 0 0-.22.219v8.09c0 .576.472 1.044 1.052 1.044h2.022c.345 0 .675.127.93.357l.41.37.41-.37c.255-.23.585-.357.93-.357h.095zm-4.509 1.084h-.297a2.122 2.122 0 0 1-1.501-.621c-.204.419-.312.88-.312 1.35v.908c0 .516.42.935.935.935.515 0 .934-.42.934-.935v-.908c0-.266.087-.52.241-.729zm-2.83-15.109c.713 0 1.362.393 1.694 1.024.364.694.743 1.652 1.022 2.576h2.322c-.388-1.495-1.035-2.846-1.54-3.762a.94.94 0 0 1 .28-1.22c.342-.242.48-.639.413-1.18-.783.347-1.837.396-2.698.396h-2.123a.42.42 0 0 0-.347.183l-.064.094c.303.62.532 1.284.651 1.89zm-1.513-.012a6.886 6.886 0 0 0-.428-1.219l-.552.184a1.304 1.304 0 0 0-.86.95l-.07.314.197-.075c.27-.102.554-.154.844-.154zm8.273 3.612h2.321c.28-.924.658-1.882 1.023-2.576a1.908 1.908 0 0 1 1.694-1.024h.389a7.88 7.88 0 0 1 .652-1.889l-.065-.094a.42.42 0 0 0-.347-.183h-2.122c-.862 0-1.916-.049-2.699-.397-.067.542.072.939.413 1.18a.94.94 0 0 1 .281 1.221c-.505.916-1.153 2.267-1.54 3.762zm6.978-4.83a6.881 6.881 0 0 0-.427 1.218h.869c.29 0 .573.052.843.154l.198.075-.07-.314a1.304 1.304 0 0 0-.86-.95zm-14.96 23.418l-1.45-3.98-.525.192 1.45 3.978zM35.93 16.846c.08.462-.034.898-.327 1.26-.24.297-.589.532-1.043.705.388.284.581.62.575 1.003-.003.236-.094.59-.51.938-.412.347-1.139.664-2.139.767.584.556.826 1.124.695 1.663a.95.95 0 0 1-.53.628c-.662.321-1.901.138-3.063-.192.267.435.452.877.437 1.252a.934.934 0 0 1-.309.678c-.27.241-.604.344-.974.344-.983 0-2.218-.726-3.183-1.485.013.702-.067 1.491-.42 1.951a.967.967 0 0 1-.815.403c-.276 0-.555-.083-.828-.244a2.11 2.11 0 0 1-.035.294c.522.712.808 1.573.808 2.457v.904a2.02 2.02 0 0 1-1.483 1.941v.072c0 .23.188.418.42.418h1.048a2.77 2.77 0 0 1 2.218-2.447v-.888h-.239a.543.543 0 0 1-.544-.541c0-.299.244-.541.544-.541h.239v-.393c0-.3.243-.541.544-.541.3 0 .544.242.544.54v.394h.238c.301 0 .545.242.545.54a.543.543 0 0 1-.545.542h-.238v.889a2.773 2.773 0 0 1 2.223 2.51.542.542 0 0 1-.505.577.543.543 0 0 1-.581-.503 1.685 1.685 0 0 0-1.681-1.556c-.93 0-1.685.751-1.685 1.675s.756 1.675 1.685 1.675c.27 0 .528-.061.767-.183a.546.546 0 0 1 .733.235.54.54 0 0 1-.237.728 2.777 2.777 0 0 1-3.91-1.63h-1.163c-.832 0-1.509-.673-1.509-1.5v-.071a2.02 2.02 0 0 1-1.483-1.942v-.904a.14.14 0 0 0-.061-.116l-.883-.603a.293.293 0 0 0-.13.067l-.43.39c-.04.035-.084.067-.128.096.1.333.379.603.783.97.75.682 1.775 1.616.738 3.543a.545.545 0 0 1-.96-.511c.638-1.186.205-1.58-.513-2.233l-.088-.08v2.788a.543.543 0 0 1-.544.54.543.543 0 0 1-.544-.54V30.79l-.088.08c-.718.653-1.151 1.047-.513 2.233a.54.54 0 0 1-.48.797.545.545 0 0 1-.48-.286c-1.037-1.927-.01-2.86.738-3.542.405-.368.684-.638.783-.97a1.067 1.067 0 0 1-.127-.098l-.431-.389a.292.292 0 0 0-.13-.067l-.883.603a.14.14 0 0 0-.06.116v.904a2.02 2.02 0 0 1-1.484 1.942v.071c0 .827-.677 1.5-1.51 1.5h-1.455l.625 1.707a.935.935 0 0 1-.563 1.198l-.805.292a.943.943 0 0 1-1.206-.56l-1.558-4.256a.934.934 0 0 1 .456-1.152l-.666-1.818a1.388 1.388 0 0 1-1.41-.516l-.746-.998a.54.54 0 0 1 .112-.757.546.546 0 0 1 .762.111l.746.998c.038.05.09.086.148.103l-.428-1.17a.545.545 0 0 1 1.023-.37l.428 1.17c.034-.05.051-.111.047-.174l-.073-1.241a.542.542 0 0 1 .511-.572.543.543 0 0 1 .576.508l.073 1.242a1.376 1.376 0 0 1-.746 1.296l.666 1.818a.943.943 0 0 1 1.094.59l.538 1.469h1.852a.42.42 0 0 0 .42-.418v-.072a2.02 2.02 0 0 1-1.483-1.94v-.905c0-.884.286-1.745.808-2.457a2.11 2.11 0 0 1-.035-.294 1.624 1.624 0 0 1-.828.244.967.967 0 0 1-.815-.403c-.353-.46-.433-1.249-.42-1.951-1.328 1.044-3.166 2.025-4.157 1.14a.934.934 0 0 1-.31-.677c-.014-.375.17-.817.438-1.252-1.162.33-2.4.513-3.063.192a.95.95 0 0 1-.53-.628c-.131-.54.111-1.107.695-1.663-1-.103-1.727-.42-2.14-.767-.415-.349-.506-.702-.51-.938-.006-.423.239-.75.58-1.001-.456-.173-.806-.41-1.047-.707a1.537 1.537 0 0 1-.327-1.26c.082-.48.448-.854 1.089-1.11a.546.546 0 0 1 .708.3.54.54 0 0 1-.302.704c-.328.131-.416.252-.422.288a.463.463 0 0 0 .102.4c.138.17.625.575 2.156.645A.542.542 0 0 1 3.5 19.14c-1.224.299-1.497.594-1.545.662.134.27 1.281.895 3.318.585a.54.54 0 1 1 .332 1.016c-1.181.607-1.7 1.185-1.735 1.458.454.16 2.275-.147 3.928-.891a.546.546 0 0 1 .668.18c.151.21.13.498-.05.686-.896.937-1.319 1.675-1.357 1.942.204.093.699.015 1.43-.375a9.559 9.559 0 0 0 2.23-1.7.547.547 0 0 1 .64-.11.54.54 0 0 1 .289.579c-.236 1.296-.098 2.27.053 2.506.158-.02.45-.17.795-.622v-3.702a4.117 4.117 0 0 1-.209.006c-.967 0-2.174-.325-3.137-1.126-.802-.667-1.759-1.944-1.765-4.24a.176.176 0 0 0-.057-.13.198.198 0 0 0-.144-.053c-.48.023-.828.141-.953.326a.546.546 0 0 1-.48.238 19.973 19.973 0 0 0-1.731-.014.542.542 0 1 1-.04-1.081 20.767 20.767 0 0 1 1.564.002c.286-.265.77-.514 1.589-.552.349-.016.693.112.946.35.254.241.394.565.395.911.004 1.51.466 2.657 1.374 3.413.825.686 1.897.92 2.648.866V18.32c0-.674.52-1.23 1.181-1.294-.247-.76-.558-1.526-.849-2.078a.825.825 0 0 0-.732-.442h-.858-1.519c-.158 0-.312.028-.459.084l-.499.19a.918.918 0 0 1-.924-.16.905.905 0 0 1-.297-.884l.139-.629a2.402 2.402 0 0 1 1.583-1.752l.642-.214a.423.423 0 0 0 .214-.16l.101-.148c.282-.41.748-.655 1.247-.655h2.125c.767 0 1.853-.04 2.425-.388a.869.869 0 0 1 .782-.06.851.851 0 0 1 .501.589c.333 1.418-.244 2.174-.687 2.53.448.821.987 1.947 1.385 3.212.398-1.265.937-2.39 1.385-3.212-.443-.356-1.02-1.112-.688-2.53a.85.85 0 0 1 .501-.589.869.869 0 0 1 .783.06c.572.347 1.658.388 2.425.388h2.125c.499 0 .965.245 1.247.655l.101.147a.423.423 0 0 0 .214.161l.642.214a2.402 2.402 0 0 1 1.583 1.752l.138.629a.905.905 0 0 1-.297.884.918.918 0 0 1-.923.16l-.5-.19a1.286 1.286 0 0 0-.458-.084h-1.518-.86a.825.825 0 0 0-.731.442c-.291.552-.602 1.319-.85 2.078.662.064 1.182.62 1.182 1.294v1.949c.751.055 1.822-.18 2.647-.867.908-.755 1.37-1.903 1.375-3.412 0-.347.141-.67.395-.91.253-.24.597-.367.946-.351.704.033 1.238.218 1.591.552.67-.026 1.9-.04 3.029.122 1.518.218 2.32.69 2.448 1.443zM21.13 22v.427a.54.54 0 1 1-1.08 0V22a.54.54 0 1 1 1.08 0zM13.33 11.985v.377a.54.54 0 1 1-1.08 0v-.377a.54.54 0 1 1 1.08 0zm9.332.377v-.377c0-.298.239-.54.534-.54.295 0 .535.242.535.54v.377c0 .298-.24.54-.535.54a.538.538 0 0 1-.534-.54zM15.68 4.829c-.415.865.196 2.294.825 3.164h2.982c.629-.87 1.24-2.299.824-3.164a1.245 1.245 0 0 0-.501-.528l-.197 1.103c-.1.561-.588.968-1.16.968h-.915c-.572 0-1.06-.407-1.16-.968l-.197-1.103c-.23.138-.398.314-.5.528zm2.316-.897c-.28 0-.533.016-.765.046l.22 1.237a.09.09 0 0 0 .09.075h.91a.09.09 0 0 0 .09-.075l.22-1.237a5.916 5.916 0 0 0-.765-.046zm-2.779 4.061c-.583-1.025-1.077-2.47-.52-3.63.316-.657.902-1.1 1.746-1.33l.016-.004c.3-.08.63-.133.993-.16v-.853h-.238a.542.542 0 0 1-.544-.541c0-.299.244-.541.544-.541h.238V.54c0-.299.243-.541.544-.541.3 0 .543.242.543.54v.394h.238c.3 0 .544.242.544.54 0 .3-.243.542-.544.542h-.238v.854c.363.026.694.079.992.159l.017.004c.844.23 1.43.673 1.746 1.33.557 1.16.063 2.605-.52 3.63h.02c.3 0 .543.242.543.541 0 .299-.243.541-.544.541H15.2a.542.542 0 0 1-.544-.54c0-.3.244-.542.544-.542z"/></g></g></svg>