<svg xmlns="http://www.w3.org/2000/svg" width="54" height="15" viewBox="0 0 54 15">
    <path fill="none" fill-rule="nonzero" stroke="#fda50c" d="M0 14c1.104 0 2.208-2.828 3.313-8.485.276-.283.69-.141 1.242.424.552.566 1.104.142 1.656-1.272.276-.283.552-.142.828.424.414.848 0 2.545 1.656 2.121 1.657-.424 1.242.51 1.657.892.414.38 1.656.94 2.898-.4 1.242-1.34 2.484-.698 3.313.4.828 1.098.828 1.23 1.656 1.654.828.424.828 3.818 1.656 2.545.828-1.273.828-1.697 1.656-1.273.828.425 1.657 2.122 1.657.425 0-1.697 0-7.213.828-7.213s0 2.546 2.484 2.122c2.484-.425 2.07-2.122 4.14-.849s2.485.424 3.313-.424c.828-.849.828 0 1.656-.424.828-.425.414-2.97 1.657-2.546 1.242.424 1.242 0 2.07-.424.828-.424.828 6.788 2.07 5.515 1.242-1.273 1.657.424 2.899-.848 1.242-1.273 2.484-2.122 3.312-.849.828 1.273 1.242 1.697 1.656 0 .414-1.697.414-3.394 1.657-2.121C52.172 4.667 53 1.273 53 0"/>
</svg>
