<svg xmlns="http://www.w3.org/2000/svg" width="55" height="16" viewBox="0 0 55 16">
    <path fill="none" fill-rule="nonzero" stroke="#DB5353" d="M0 13c1.104 0 2.208-2.828 3.313-8.485.276-.283.69-.141 1.242.424.552.566 1.104.142 1.656-1.272.276-.283.552-.142.828.424.414.848 0 2.545 1.656 2.121 1.657-.424 1.242.51 1.657.892.414.38 1.656.94 2.898-.4 1.242-1.34 2.484-.698 3.313.4.828 1.098.828 1.23 1.656 1.654.828.424.828 3.818 1.656 2.545.828-1.273.828-1.697 1.656-1.273.828.425 1.657 2.122 1.657.425 0-1.697.984-4.243 1.812-4.243.828 0 1.516 3.212 4 2.788 2.484-.424 3.047 4.18 4 6.09.953 1.91.125-10.15.953-11 .828-.848.828 0 1.656-.423.828-.425.414-2.97 1.657-2.546 1.242.424 1.242 0 2.07-.424.828-.424.828 6.788 2.07 5.515C42.648 4.94 45.172 2.664 46 3.937c.828 1.272 2.86 2.275 3.273.578.414-1.697.414-3.394 1.657-2.121C52.172 3.667 54 11.303 54 10.03"/>
</svg>
