<svg xmlns="http://www.w3.org/2000/svg" width="22" height="20" viewBox="0 0 22 20"><g><g><path fill="#fff" d="M8.814 2.26c.707.558 1.199 1.264 1.487 1.758a.804.804 0 0 0 1.398 0c.288-.494.78-1.2 1.487-1.758.793-.626 1.69-.943 2.668-.943 1.335 0 2.561.544 3.453 1.532.906 1.003 1.404 2.39 1.404 3.904 0 1.598-.581 3.027-1.885 4.634-1.26 1.553-3.135 3.184-5.305 5.073-.76.662-1.622 1.412-2.523 2.213-.895-.8-1.755-1.549-2.514-2.209l-.004-.003c-2.17-1.89-4.045-3.521-5.306-5.074C1.87 9.78 1.29 8.35 1.29 6.753c0-1.515.498-2.901 1.404-3.904a4.597 4.597 0 0 1 3.453-1.532c.978 0 1.875.317 2.668.943zM11 20c.313 0 .615-.116.85-.326.891-.796 1.75-1.544 2.507-2.203 2.216-1.93 4.13-3.596 5.461-5.238C21.307 10.397 22 8.657 22 6.756c0-1.847-.62-3.551-1.745-4.799A5.858 5.858 0 0 0 15.855 0c-1.27 0-2.434.41-3.457 1.22A7.161 7.161 0 0 0 11 2.71a7.16 7.16 0 0 0-1.397-1.49C8.579.41 7.416 0 6.146 0c-1.7 0-3.262.695-4.4 1.957C.62 3.205 0 4.91 0 6.756c0 1.901.693 3.641 2.182 5.477 1.332 1.642 3.246 3.308 5.462 5.238l.004.004c.756.658 1.613 1.404 2.502 2.198.235.211.537.327.85.327z"/></g></g></svg>