<svg xmlns="http://www.w3.org/2000/svg" width="16" height="14" viewBox="0 0 16 14">
    <path fill="#7D7098" fill-rule="nonzero" d="M8 13.985a.948.948 0 0 1-.619-.228c-.646-.555-1.27-1.077-1.819-1.538l-.003-.002c-1.612-1.35-3.004-2.515-3.972-3.663C.504 7.27 0 6.054 0 4.724 0 3.432.45 2.241 1.27 1.37A4.338 4.338 0 0 1 4.47 0c.923 0 1.77.287 2.514.853.375.285.716.635 1.016 1.042.3-.407.64-.757 1.016-1.042A4.07 4.07 0 0 1 11.53 0c1.236 0 2.373.486 3.2 1.369.82.872 1.27 2.063 1.27 3.355 0 1.33-.504 2.546-1.587 3.83-.968 1.148-2.36 2.313-3.972 3.663-.55.46-1.175.983-1.823 1.54a.949.949 0 0 1-.618.228zM4.47.921c-.971 0-1.863.38-2.512 1.072C1.3 2.694.938 3.664.938 4.724c0 1.118.422 2.118 1.37 3.242.917 1.087 2.28 2.229 3.86 3.55l.002.003c.552.462 1.178.986 1.829 1.545.655-.56 1.281-1.085 1.834-1.548 1.579-1.322 2.942-2.463 3.859-3.55.948-1.124 1.37-2.124 1.37-3.242 0-1.06-.362-2.03-1.02-2.731A3.404 3.404 0 0 0 11.53.92c-.71 0-1.364.222-1.94.66a4.49 4.49 0 0 0-1.082 1.23.59.59 0 0 1-.508.283.59.59 0 0 1-.508-.284A4.486 4.486 0 0 0 6.41 1.58 3.144 3.144 0 0 0 4.47.92z"/>
</svg>
