<svg xmlns="http://www.w3.org/2000/svg" width="31" height="27" viewBox="0 0 31 27"><g><g><g><path fill="#fff" d="M30.67 10.677L16.006.201a.82.82 0 0 0-.95 0L.389 10.677a.772.772 0 0 0-.174 1.096.817.817 0 0 0 1.124.17l14.19-10.137 14.192 10.137c.143.102.31.151.474.151a.81.81 0 0 0 .65-.32.772.772 0 0 0-.174-1.097z"/></g><g><path fill="#fff" d="M26.783 12.12a.794.794 0 0 0-.804.784v12.483h-6.43v-6.814c0-2.162-1.804-3.921-4.02-3.921-2.217 0-4.02 1.759-4.02 3.921v6.814H5.078V12.904a.794.794 0 0 0-.804-.784.794.794 0 0 0-.804.784v13.268c0 .433.36.784.804.784h8.039a.796.796 0 0 0 .804-.784v-7.599c0-1.297 1.082-2.353 2.412-2.353 1.33 0 2.411 1.056 2.411 2.353v7.599a.796.796 0 0 0 .804.784h8.04a.794.794 0 0 0 .803-.784V12.904a.794.794 0 0 0-.804-.784z"/></g></g></g></svg>