<svg xmlns="http://www.w3.org/2000/svg" width="29" height="29" viewBox="0 0 29 29"><g><g><path fill="#fff" d="M16.26 27.881a18.439 18.439 0 0 0 4.136-5.849 17.437 17.437 0 0 1 3.759 1.891 13.471 13.471 0 0 1-7.894 3.958zM4.846 23.923a17.425 17.425 0 0 1 3.759-1.89 18.45 18.45 0 0 0 4.136 5.848 13.471 13.471 0 0 1-7.894-3.958zM21.986 15h6.002a13.435 13.435 0 0 1-3.154 8.174 18.437 18.437 0 0 0-4.056-2.066A18.465 18.465 0 0 0 21.986 15zM15 20.019V15h5.986a17.455 17.455 0 0 1-1.156 5.79 18.414 18.414 0 0 0-4.83-.771zm0 7.659v-6.659c1.52.043 3.009.278 4.442.7A17.482 17.482 0 0 1 15 27.678zm-1-6.659v6.659a17.485 17.485 0 0 1-4.442-5.959 17.434 17.434 0 0 1 4.442-.7zM8.014 15H14v5.019a18.442 18.442 0 0 0-4.83.77A17.462 17.462 0 0 1 8.013 15zm.782-8.464a17.375 17.375 0 0 1-3.647-1.758 13.46 13.46 0 0 1 7.591-3.66 18.458 18.458 0 0 0-3.945 5.418zm11.409 0a18.465 18.465 0 0 0-3.944-5.418 13.461 13.461 0 0 1 7.591 3.66 17.391 17.391 0 0 1-3.647 1.758zM15 7.482v-6.16a17.494 17.494 0 0 1 4.236 5.518c-1.371.385-2.79.6-4.236.641zm0 1a18.46 18.46 0 0 0 4.654-.72A17.463 17.463 0 0 1 20.986 14H15zm-1 0V14H8.014a17.463 17.463 0 0 1 1.333-6.237c1.503.435 3.063.676 4.653.719zm0-1a17.48 17.48 0 0 1-4.236-.642A17.494 17.494 0 0 1 14 1.322zM27.988 14h-6.002a18.464 18.464 0 0 0-1.375-6.548 18.392 18.392 0 0 0 3.95-1.94A13.441 13.441 0 0 1 27.987 14zM4.439 5.511a18.392 18.392 0 0 0 3.95 1.941A18.464 18.464 0 0 0 7.014 14H1.012A13.441 13.441 0 0 1 4.44 5.511zM1.013 15h6.001c.057 2.12.47 4.179 1.208 6.109a18.437 18.437 0 0 0-4.056 2.065A13.438 13.438 0 0 1 1.012 15zm24.331 9.111A14.438 14.438 0 0 0 29 14.5c0-3.833-1.498-7.322-3.936-9.917-.002-.003-.005-.004-.006-.007A14.459 14.459 0 0 0 15.003.013h-.001L14.72.005C14.646.003 14.572 0 14.5 0c-.073 0-.146.003-.22.005L14 .013A14.459 14.459 0 0 0 3.943 4.576c-.001.003-.004.004-.006.007A14.44 14.44 0 0 0 0 14.5c0 3.684 1.384 7.05 3.656 9.611.003.004.003.01.006.014.01.013.023.018.032.03a14.467 14.467 0 0 0 10.304 4.832v.001l.282.007c.074.002.147.005.22.005.074 0 .147-.003.22-.005l.281-.007v-.001a14.466 14.466 0 0 0 10.313-4.842c.006-.009.017-.011.023-.02.004-.004.004-.01.007-.014z"/></g></g></svg>