<svg xmlns="http://www.w3.org/2000/svg" width="17" height="19" viewBox="0 0 17 19">
    <g fill="#7D7098" fill-rule="nonzero">
        <path d="M16.339 3.267L10.386.131C9.82-.166 9.045.063 8.739.611L5.257 6.908H1.02c-.54 0-.964.412-.964.939v10.186c0 .527.423.939.964.939h13.53c.54 0 .964-.412.964-.939v-2.38h.4c.212 0 .377-.16.377-.367v-2.724a.367.367 0 0 0-.377-.366h-.4V9.517a.961.961 0 0 0-.753-.916l2.071-3.731a1.183 1.183 0 0 0-.494-1.603zm-4.235-1.396L8.386 8.578H7.327l3.977-7.12.8.413zM9.42.955a.47.47 0 0 1 .612-.183l.588.32-4.14 7.486H5.185L9.42.955zM.786 7.823c0-.069.094-.183.212-.183h3.835l-.518.915H.998c-.07 0-.141 0-.212.023v-.755zm13.953 10.21a.208.208 0 0 1-.212.205H.997a.208.208 0 0 1-.211-.206V9.517c0-.115.094-.206.212-.206h13.506c.117 0 .211.091.211.206v2.678H13.28c-.635 0-1.13.504-1.13 1.099v1.259c0 .618.518 1.099 1.13 1.099h1.459v2.38zm.753-5.105h.023v1.991H13.28a.367.367 0 0 1-.376-.366v-1.26c0-.205.164-.365.376-.365h2.212zm.659-8.424l-2.26 4.074H9.234l3.53-6.34 3.2 1.693c.235.092.305.366.188.573z"/>
        <path d="M14.715 4.16l-.188-.091c-.47-.252-1.106-.07-1.365.389l-.235.435c-.118.229-.165.503-.07.755.07.252.258.458.494.572l.188.092c.141.069.306.114.47.114.377 0 .706-.206.895-.503l.235-.435a1.012 1.012 0 0 0-.424-1.328zm-.258.984l-.236.435a.27.27 0 0 1-.353.092l-.188-.114c-.047-.023-.094-.092-.118-.138-.023-.068-.023-.137.024-.183l.235-.435c.047-.069.141-.137.236-.137.047 0 .07 0 .117.023l.188.091a.35.35 0 0 1 .095.366z"/>
    </g>
</svg>
