<svg xmlns="http://www.w3.org/2000/svg" width="20" height="20" viewBox="0 0 20 20">
    <g fill="#FFF" fill-rule="evenodd">
        <path d="M9.908 13.092c0 .443-.178.867-.496 1.179L5.82 17.806c-.661.651-1.733.651-2.394 0l-1.198-1.178a1.648 1.648 0 0 1 0-2.357l3.592-3.536a1.695 1.695 0 0 1 1.367-.48l1.345-1.323a3.429 3.429 0 0 0-3.91.625l-3.59 3.535a3.307 3.307 0 0 0-.993 2.357c0 .884.357 1.732.992 2.357l1.197 1.179a3.414 3.414 0 0 0 2.395.976c.898 0 1.76-.351 2.394-.976l3.592-3.536a3.295 3.295 0 0 0 .4-4.24l-1.241 1.22c.092.21.14.435.14.663zM18.969 2.194l-1.197-1.179A3.414 3.414 0 0 0 15.377.04c-.898 0-1.76.351-2.394.976L9.39 4.551a3.297 3.297 0 0 0-.523 4.05l1.283-1.263a1.642 1.642 0 0 1 .437-1.609l3.592-3.535a1.712 1.712 0 0 1 2.394 0l1.198 1.178c.66.651.66 1.706 0 2.357L14.18 9.265a1.703 1.703 0 0 1-1.634.43l-1.284 1.263a3.43 3.43 0 0 0 4.115-.515l3.592-3.535a3.307 3.307 0 0 0 .992-2.357c0-.884-.357-1.732-.992-2.357z"/>
        <path d="M5.432 13.16l8.04-7.915 1.198 1.178-8.041 7.916z"/>
    </g>
</svg>
