<svg xmlns="http://www.w3.org/2000/svg" width="37" height="37" viewBox="0 0 37 37"><g><g><g><path fill="#7c44c0" d="M0 14C0 6.268 6.268 0 14 0h9c7.732 0 14 6.268 14 14v9c0 7.732-6.268 14-14 14h-9C6.268 37 0 30.732 0 23z"/></g><g><g><g><g><g><path fill="none" stroke="#fff" stroke-dasharray=".162 .162" stroke-linecap="square" stroke-miterlimit="50" stroke-width=".88" d="M14.413 9.09v0l-.333 7.59v0l-3.83 5.853v0"/></g><g><path fill="none" stroke="#fff" stroke-dasharray=".162 .162" stroke-linecap="square" stroke-miterlimit="50" stroke-width=".88" d="M22.58 9.09v0l.333 7.59v0l3.83 5.853v0"/></g><g><path fill="none" stroke="#fff" stroke-dasharray=".162 .162" stroke-linecap="square" stroke-miterlimit="50" stroke-width=".88" d="M12.2 25.97v0l6.577-2.56v0l6.578 2.743v0"/></g><g><path fill="none" stroke="#fff" stroke-dasharray=".162 .162" stroke-linecap="square" stroke-miterlimit="50" stroke-width=".88" d="M14.14 16.59v0l4.33 2.835v0l4.412-2.835v0"/></g><g><path fill="none" stroke="#fff" stroke-dasharray=".162 .162" stroke-linecap="square" stroke-miterlimit="50" stroke-width=".88" d="M18.783 20v3.526"/></g></g><g><g><path fill="none" stroke="#fff" stroke-miterlimit="50" stroke-width=".88" d="M18.744 18.55v0l5.12 3.475v0l-2.331 5.944v0h-5.579v0l-2.414-5.944v0z"/></g><g><path fill="none" stroke="#fff" stroke-miterlimit="50" stroke-width=".88" d="M18.49 13.847v0l-6.24-2.925v0L14.326 9v0h8.161v0l2.508 2.084v0"/></g><g><path fill="none" stroke="#fff" stroke-miterlimit="50" stroke-width=".88" d="M12.08 11.05v0L9 17.085v0l1.166 5.487v0l1.748 3.11v0l2.58 2.286v0h8.16v0l2.331-2.104v0l1.832-3.292v0l1.249-5.486v0l-2.997-6.036v0l-6.536 2.743v4.756"/></g><g><path fill="none" stroke="#fff" stroke-miterlimit="50" stroke-width=".88" d="M23.93 22.118l4.413-4.938"/></g><g><path fill="none" stroke="#fff" stroke-miterlimit="50" stroke-width=".88" d="M13.413 22.118L9 17.18"/></g></g></g></g></g></g></g></svg>