<svg xmlns="http://www.w3.org/2000/svg" width="54" height="63" viewBox="0 0 54 63"><defs><linearGradient id="ec51a" x1="11.88" x2="41.72" y1="3.75" y2="58.36" gradientUnits="userSpaceOnUse"><stop offset="0" stop-color="#8650c8"/><stop offset="1" stop-color="#692eb1"/></linearGradient></defs><g><g><g><path fill="url(#ec51a)" d="M27 0l26.847 15.754v31.508L27 63.015.153 47.262V15.754z"/></g><g><g><g><g><g><path fill="none" stroke="#fff" stroke-dasharray=".246 .246" stroke-linecap="square" stroke-miterlimit="50" stroke-width=".82" d="M20.652 15.54v0l-.513 11.132v0l-5.899 8.584v0"/></g><g><path fill="none" stroke="#fff" stroke-dasharray=".246 .246" stroke-linecap="square" stroke-miterlimit="50" stroke-width=".82" d="M33.24 15.54v0l.513 11.132v0l5.9 8.584v0"/></g><g><path fill="none" stroke="#fff" stroke-dasharray=".246 .246" stroke-linecap="square" stroke-miterlimit="50" stroke-width=".82" d="M17.24 40.295v0l10.131-3.755v0l10.132 4.024v0"/></g><g><path fill="none" stroke="#fff" stroke-dasharray=".246 .246" stroke-linecap="square" stroke-miterlimit="50" stroke-width=".82" d="M20.24 26.54v0l6.669 4.158v0l6.797-4.158v0"/></g><g><path fill="none" stroke="#fff" stroke-dasharray=".246 .246" stroke-linecap="square" stroke-miterlimit="50" stroke-width=".82" d="M27.354 31.54v5.171"/></g></g><g><g><path fill="none" stroke="#fff" stroke-miterlimit="50" stroke-width=".98" d="M27.335 29.41v0l7.888 5.097v0l-3.591 8.718v0h-8.593v0l-3.719-8.718v0z"/></g><g><path fill="none" stroke="#fff" stroke-miterlimit="50" stroke-width=".98" d="M26.93 22.518v0l-9.61-4.29v0l3.198-2.818v0h12.57v0l3.863 3.057v0"/></g><g><path fill="none" stroke="#fff" stroke-miterlimit="50" stroke-width=".98" d="M17.065 18.41v0l-4.745 8.852v0l1.795 8.047v0l2.694 4.56v0l3.975 3.354v0h12.568v0l3.591-3.085v0l2.822-4.829v0l1.923-8.047v0l-4.616-8.852v0l-10.068 4.024v6.974"/></g><g><path fill="none" stroke="#fff" stroke-miterlimit="50" stroke-width=".98" d="M35.32 34.653l6.797-7.243"/></g><g><path fill="none" stroke="#fff" stroke-miterlimit="50" stroke-width=".98" d="M19.117 34.653L12.32 27.41"/></g></g></g></g></g></g></g></svg>