<svg xmlns="http://www.w3.org/2000/svg" width="21" height="21" viewBox="0 0 21 21"><g><g><g><g><g><g><path fill="none" stroke="#fff" stroke-dasharray=".162 .162" stroke-linecap="square" stroke-miterlimit="50" stroke-width=".88" d="M6.413 1.09v0L6.08 8.68v0l-3.83 5.853v0"/></g><g><path fill="none" stroke="#fff" stroke-dasharray=".162 .162" stroke-linecap="square" stroke-miterlimit="50" stroke-width=".88" d="M14.58 1.09v0l.333 7.59v0l3.83 5.853v0"/></g><g><path fill="none" stroke="#fff" stroke-dasharray=".162 .162" stroke-linecap="square" stroke-miterlimit="50" stroke-width=".88" d="M4.2 17.97v0l6.577-2.56v0l6.578 2.743v0"/></g><g><path fill="none" stroke="#fff" stroke-dasharray=".162 .162" stroke-linecap="square" stroke-miterlimit="50" stroke-width=".88" d="M6.14 8.59v0l4.33 2.835v0l4.412-2.835v0"/></g><g><path fill="none" stroke="#fff" stroke-dasharray=".162 .162" stroke-linecap="square" stroke-miterlimit="50" stroke-width=".88" d="M10.783 12v3.526"/></g></g><g><g><path fill="none" stroke="#fff" stroke-miterlimit="50" stroke-width=".88" d="M10.744 10.55v0l5.12 3.475v0l-2.331 5.944v0H7.954v0L5.54 14.025v0z"/></g><g><path fill="none" stroke="#fff" stroke-miterlimit="50" stroke-width=".88" d="M10.49 5.847v0L4.25 2.922v0L6.326 1v0h8.161v0l2.508 2.084v0"/></g><g><path fill="none" stroke="#fff" stroke-miterlimit="50" stroke-width=".88" d="M4.08 3.05v0L1 9.085v0l1.166 5.487v0l1.748 3.11v0l2.58 2.286v0h8.16v0l2.331-2.104v0l1.832-3.292v0l1.249-5.486v0L17.069 3.05v0l-6.536 2.743v4.756"/></g><g><path fill="none" stroke="#fff" stroke-miterlimit="50" stroke-width=".88" d="M15.93 14.118l4.413-4.938"/></g><g><path fill="none" stroke="#fff" stroke-miterlimit="50" stroke-width=".88" d="M5.413 14.118L1 9.18"/></g></g></g></g></g></g></svg>