<svg xmlns="http://www.w3.org/2000/svg" width="18" height="22" viewBox="0 0 18 22">
    <path fill="#7D7098" fill-rule="nonzero" d="M17.959 19.017L16.676 4.832a.613.613 0 0 0-.613-.553h-2.639C13.388 1.912 11.418 0 9 0 6.582 0 4.612 1.912 4.576 4.279H1.937a.61.61 0 0 0-.613.553L.04 19.017c0 .018-.004.036-.004.054C.037 20.686 1.544 22 3.398 22h11.204c1.854 0 3.361-1.314 3.361-2.929 0-.018 0-.036-.004-.054zM9 1.215c1.736 0 3.151 1.367 3.188 3.064H5.812C5.85 2.582 7.264 1.215 9 1.215zm5.602 19.57H3.398c-1.163 0-2.106-.756-2.125-1.687l1.228-13.6h2.07v1.844a.61.61 0 0 0 .618.608.61.61 0 0 0 .619-.608V5.498h6.38v1.844a.61.61 0 0 0 .618.608.61.61 0 0 0 .618-.608V5.498h2.07l1.233 13.6c-.019.931-.967 1.687-2.125 1.687z"/>
</svg>
