<svg xmlns="http://www.w3.org/2000/svg" width="27" height="29" viewBox="0 0 27 29"><g><g><path fill="#fff" d="M21.875 27.355c-1.934 0-3.507-1.596-3.507-3.56 0-1.965 1.573-3.561 3.507-3.561 1.935 0 3.508 1.596 3.508 3.56 0 1.965-1.573 3.561-3.508 3.561zm-16.71-9.317c-1.934 0-3.507-1.595-3.507-3.556s1.573-3.556 3.507-3.556c1.935 0 3.507 1.595 3.507 3.556s-1.578 3.556-3.507 3.556zM21.875 1.63c1.935 0 3.508 1.594 3.508 3.555 0 1.962-1.573 3.556-3.508 3.556-1.934 0-3.507-1.594-3.507-3.556 0-1.961 1.579-3.555 3.507-3.555zm0 16.984a5.09 5.09 0 0 0-4.047 2.022l-7.85-4.446a5.263 5.263 0 0 0 .285-1.709c0-.602-.101-1.173-.291-1.715l7.845-4.44a5.078 5.078 0 0 0 4.053 2.034c2.812 0 5.109-2.323 5.109-5.18 0-2.859-2.29-5.181-5.11-5.181-2.818 0-5.109 2.322-5.109 5.18 0 .602.101 1.18.291 1.715l-7.839 4.44A5.06 5.06 0 0 0 5.16 9.302c-2.813 0-5.109 2.322-5.109 5.18 0 2.858 2.296 5.18 5.115 5.18 1.65 0 3.121-.8 4.06-2.04l7.844 4.447a5.222 5.222 0 0 0-.297 1.727c0 2.852 2.29 5.18 5.11 5.18 2.818 0 5.109-2.322 5.109-5.18 0-2.858-2.297-5.18-5.116-5.18z"/></g></g></svg>