<svg xmlns="http://www.w3.org/2000/svg" width="28" height="29" viewBox="0 0 28 29"><g><g><path fill="#fff" d="M25.555 18.98a.819.819 0 0 0-.109.988c0 .006.247.43.277 1.012.042.793-.337 1.496-1.13 2.095a.83.83 0 0 0-.276.933c0 .006.258.805-.162 1.562-.403.727-1.298 1.248-2.656 1.539-1.088.236-2.566.278-4.38.133h-.085c-3.863.085-7.769-.424-7.81-.43h-.007l-.607-.073c.036-.17.054-.35.054-.533v-9.848c0-.26-.042-.514-.114-.75.108-.406.409-1.309 1.118-2.078 2.698-2.156 5.335-9.43 5.45-9.745a.773.773 0 0 0 .036-.406c-.102-.678-.066-1.508.078-1.756.318.006 1.177.096 1.694.817.613.854.589 2.38-.072 4.403-1.01 3.083-1.093 4.706-.294 5.421.396.357.925.376 1.31.236a16.84 16.84 0 0 1 1.045-.212l.078-.018c1.845-.406 5.15-.654 6.297.4.974.896.283 2.083.204 2.21a.814.814 0 0 0 .145 1.054c.006.006.637.606.667 1.412.024.539-.229 1.09-.751 1.635zM2.5 27.08a.882.882 0 0 1-.878-.883v-9.844c0-.49.397-.884.878-.884h3.665c.486 0 .877.4.877.884v9.838c0 .49-.397.884-.877.884H2.5zm24.593-7.398c.589-.756.871-1.568.835-2.403-.036-.92-.445-1.64-.781-2.083.39-.98.54-2.524-.763-3.723-.956-.878-2.578-1.272-4.825-1.163-1.58.073-2.902.37-2.956.382h-.006c-.3.054-.62.12-.944.194-.024-.388.042-1.35.751-3.518.841-2.58.793-4.553-.156-5.873C17.251.11 15.658 0 15.19 0c-.45 0-.866.188-1.16.533-.667.78-.589 2.222-.505 2.888-.793 2.143-3.016 7.398-4.897 8.857a.644.644 0 0 0-.096.085 6.508 6.508 0 0 0-1.177 1.78 2.465 2.465 0 0 0-1.19-.303H2.5A2.511 2.511 0 0 0 0 16.36v9.838a2.511 2.511 0 0 0 2.5 2.518h3.665c.535 0 1.033-.17 1.442-.46l1.412.17c.216.03 4.062.52 8.01.442.714.054 1.387.085 2.012.085 1.076 0 2.013-.085 2.794-.255 1.839-.393 3.095-1.18 3.732-2.337a3.73 3.73 0 0 0 .408-2.318c1.196-1.09 1.406-2.295 1.364-3.143a4.117 4.117 0 0 0-.246-1.217z"/></g></g></svg>