<svg xmlns="http://www.w3.org/2000/svg" width="23" height="23" viewBox="0 0 23 23"><g><g><path fill="#fff" d="M1.188 4.966a2.517 2.517 0 0 1 .76-1.62l1.78-1.773c.277-.267.584-.405.88-.405.292 0 .589.138.861.414.32.296.622.606.948.934.162.167.33.334.497.506l1.426 1.42c.296.295.45.595.45.891 0 .295-.154.596-.45.891-.149.148-.297.3-.445.448-.445.448-.861.872-1.32 1.277l-.025.024c-.397.396-.334.772-.239 1.058l.015.038c.368.882.88 1.72 1.679 2.722 1.435 1.763 2.947 3.13 4.612 4.184.205.134.425.238.631.343.191.096.368.186.526.286.02.01.034.02.053.029.158.08.31.119.464.119.383 0 .631-.243.713-.324l1.789-1.783c.277-.276.579-.424.875-.424.364 0 .66.224.847.424l2.885 2.87c.574.571.57 1.191-.015 1.796-.2.215-.411.42-.636.634-.335.324-.684.658-1 1.034-.55.591-1.205.868-2.052.868-.081 0-.167-.005-.249-.01-1.569-.1-3.028-.71-4.123-1.23a23.256 23.256 0 0 1-7.755-6.052c-1.785-2.14-2.985-4.132-3.78-6.267-.492-1.31-.679-2.364-.602-3.322zM4.66 15.289a24.48 24.48 0 0 0 8.147 6.357c1.191.563 2.784 1.23 4.559 1.344.11.005.215.01.325.01 1.191 0 2.148-.41 2.928-1.253a.104.104 0 0 0 .02-.024c.277-.334.592-.634.922-.953.225-.215.455-.439.675-.668 1.019-1.058 1.019-2.402-.01-3.426l-2.875-2.865c-.488-.505-1.071-.772-1.684-.772-.612 0-1.2.267-1.703.768l-1.712 1.706c-.158-.09-.32-.172-.474-.248a5.923 5.923 0 0 1-.526-.286c-1.56-.986-2.976-2.273-4.33-3.927-.684-.863-1.143-1.587-1.464-2.326.45-.405.871-.829 1.278-1.244.143-.147.292-.295.44-.443.517-.515.794-1.11.794-1.716 0-.605-.273-1.2-.794-1.715L7.75 2.188c-.167-.167-.325-.33-.488-.496a26.19 26.19 0 0 0-.97-.958C5.798.253 5.22 0 4.607 0c-.607 0-1.191.253-1.703.739L1.116 2.52A3.656 3.656 0 0 0 .02 4.866c-.09 1.139.12 2.35.665 3.813.838 2.263 2.1 4.365 3.976 6.61z"/></g></g></svg>