<svg xmlns="http://www.w3.org/2000/svg" width="35" height="24" viewBox="0 0 35 24"><g><g><path fill="#fff" d="M1.468 11.085l1.064-1.807 6.255 1.485c.135.033.277.02.404-.035l20.33-9.08a4.65 4.65 0 0 1 2.612-.398c.625.055 1.183.4 1.492.924.513 1.052-.496 2.59-2.202 3.35L24.38 8.682l.428-1.21a.589.589 0 0 0-.394-.752.629.629 0 0 0-.786.377l-5.032 14.32c-.3.813-.673 1.298-1.088 1.403-.258.048-.525 0-.747-.134l1.223-12.28a.595.595 0 0 0-.553-.64.607.607 0 0 0-.67.53l-.189 1.876L6.078 16.85l-.861-1.754 1.723-.772a.584.584 0 0 0 .365-.535.584.584 0 0 0-.365-.535zm5.503-8.443a.992.992 0 0 1 .367-.632c.349-.24.985-.205 1.834.1l8.952 3.343L14.04 7.28zm-2.8 11.63a.575.575 0 0 0-.3.766l1.376 2.824a.603.603 0 0 0 .55.339.633.633 0 0 0 .257-.053l10.395-4.642-.942 9.413a.572.572 0 0 0 .202.492c.455.36 1.023.566 1.614.584.163 0 .325-.02.483-.058.844-.21 1.498-.93 1.945-2.158l4.09-11.583 8.102-3.613c2.385-1.064 3.614-3.222 2.788-4.906-.468-.88-1.365-1.479-2.39-1.596a5.898 5.898 0 0 0-3.339.491l-9.35 4.192-10.051-3.76C8.335.55 7.332.56 6.629 1.047a2.343 2.343 0 0 0-.911 1.888.579.579 0 0 0 .263.462l6.768 4.45L8.873 9.6l-6.5-1.579a.623.623 0 0 0-.679.28l-1.62 2.79a.56.56 0 0 0-.036.48c.06.159.19.284.354.344l4.812 1.9z"/></g></g></svg>