<svg xmlns="http://www.w3.org/2000/svg" width="20" height="21" viewBox="0 0 20 21">
    <g fill="#FFF" fill-rule="evenodd">
        <path fill-rule="nonzero" d="M16.89 4.304h-.54v-1.2A3.11 3.11 0 0 0 13.24 0H6.712a3.11 3.11 0 0 0-3.11 3.103v1.201H3.11A3.11 3.11 0 0 0 0 7.408v5.005a3.11 3.11 0 0 0 3.11 3.103h.488v3.935c0 .853.698 1.549 1.552 1.549h9.643c.855 0 1.552-.696 1.552-1.55v-3.934h.546A3.11 3.11 0 0 0 20 12.413V7.408a3.11 3.11 0 0 0-3.11-3.104zm-12.115-1.2c0-1.063.868-1.929 1.932-1.929h6.525c1.064 0 1.932.866 1.932 1.928v1.201H4.775v-1.2zm10.393 16.355c0 .205-.17.375-.375.375H5.15a.377.377 0 0 1-.375-.375v-6.49h10.393v6.49zm3.655-7.042a1.934 1.934 0 0 1-1.932 1.928h-.541V12.97h.776a.586.586 0 0 0 .589-.588.586.586 0 0 0-.589-.587H2.734a.586.586 0 0 0-.588.587c0 .327.261.588.588.588h.868v1.375H3.11a1.934 1.934 0 0 1-1.932-1.928V7.412c0-1.062.868-1.928 1.932-1.928h13.782c1.064 0 1.932.866 1.932 1.928v5.005z"/>
        <path d="M5.61 16h7.78c.339 0 .61-.222.61-.5s-.271-.5-.61-.5H5.61c-.339 0-.61.222-.61.5s.276.5.61.5zM14.394 17H6.61c-.34 0-.611.222-.611.5s.271.5.61.5h7.78c.339 0 .61-.222.61-.5s-.271-.5-.606-.5zM16.504 7h-1.008a.496.496 0 0 0-.496.5c0 .278.22.5.496.5h1.008A.496.496 0 0 0 17 7.5c0-.278-.22-.5-.496-.5z"/>
    </g>
</svg>
