<svg xmlns="http://www.w3.org/2000/svg" width="16" height="13" viewBox="0 0 16 13">
    <path fill="#A18DC8" fill-rule="nonzero" d="M11.416 7.08c.041.103.06.208.06.313a.98.98 0 0 1-.201.586.956.956 0 0 1-.51.35c-.001.002-.003.002-.004.002h-.003a.937.937 0 0 1-.296.048 1.07 1.07 0 0 1-.642-.22.936.936 0 0 1-.361-.572v-.002l-.001-.003a.834.834 0 0 1-.02-.181c0-.204.071-.4.19-.562a.988.988 0 0 1 .476-.354h.001l.002-.001c.11-.04.226-.06.34-.06.209 0 .414.062.588.175a.93.93 0 0 1 .38.474v.004l.002.003zm-.638 2.502a.518.518 0 0 0-.277-.083.442.442 0 0 0-.239.07 4.746 4.746 0 0 1-2.359.635 4.148 4.148 0 0 1-1.789-.393l-.003-.001-.003-.001c-.084-.034-.18-.105-.283-.172a1.044 1.044 0 0 0-.17-.091.456.456 0 0 0-.393.001.443.443 0 0 0-.222.18.501.501 0 0 0-.013.513c.04.072.102.136.183.178.796.522 1.732.759 2.673.758.847 0 1.7-.191 2.46-.539l.004-.002.004-.002c.1-.058.233-.11.358-.185a.787.787 0 0 0 .175-.14.527.527 0 0 0 .117-.213.42.42 0 0 0-.031-.301.522.522 0 0 0-.192-.212zM5.193 8.327a1.07 1.07 0 0 0 1.014-.216.909.909 0 0 0 .32-.678v-.022-.04a.916.916 0 0 0-.316-.677 1.057 1.057 0 0 0-.699-.273c-.069 0-.14.008-.209.024h-.002H5.3c-.344.07-.645.318-.757.66a.88.88 0 0 0-.047.286.988.988 0 0 0 .693.935h.004zM15.964 5.89c.003.035.003.069.003.102 0 .378-.124.74-.332 1.048-.193.288-.46.53-.768.693.02.15.03.301.03.452 0 .812-.287 1.61-.789 2.25v.001c-.928 1.2-2.351 1.907-3.788 2.264h-.002a10.23 10.23 0 0 1-2.347.274 9.512 9.512 0 0 1-3.453-.635v-.001h-.001c-1.139-.457-2.224-1.182-2.89-2.246a3.585 3.585 0 0 1-.554-1.901c0-.151.01-.303.032-.453-.3-.164-.56-.397-.752-.675A1.952 1.952 0 0 1 0 6.046V6.04c0-.518.232-1.008.59-1.37.36-.362.85-.598 1.377-.598h.022a2.23 2.23 0 0 1 .948.13l.001.001h.001c.215.088.429.195.619.342.062-.032.129-.067.204-.095 1.153-.664 2.494-.92 3.8-.995.011-.63.091-1.288.407-1.865.262-.479.719-.852 1.262-.981l.002-.001h.003c.207-.04.415-.057.623-.057.552 0 1.097.127 1.607.325.226-.332.549-.59.927-.736l.004-.002.004-.001c.222-.067.456-.107.692-.107.248 0 .499.044.733.146h.001l.004.002c.337.126.621.359.823.648a1.756 1.756 0 0 1 .31 1.195l-.001.001v.004c-.04.462-.281.868-.622 1.158-.343.29-.787.466-1.243.466-.074 0-.147-.004-.22-.014a1.867 1.867 0 0 1-1.184-.563 1.715 1.715 0 0 1-.512-1.194l.003-.067c-.424-.184-.875-.336-1.323-.336-.065 0-.13.004-.195.01a1.014 1.014 0 0 0-.799.533v.001c-.229.435-.275.943-.282 1.447 1.286.081 2.58.382 3.714 1.016h.002l.016.01.098.052c.078-.062.16-.125.254-.18a2.136 2.136 0 0 1 1.16-.333c.18 0 .361.022.537.066l.008.002.006.001c.416.103.791.335 1.074.648.282.313.472.71.51 1.14zm-3.788-4.094c0 .017 0 .034.003.052v.003a.83.83 0 0 0 .274.569.89.89 0 0 0 .591.243h.006l.047.001a.903.903 0 0 0 .6-.24.83.83 0 0 0 .28-.573v-.002a.835.835 0 0 0-.276-.65.925.925 0 0 0-.622-.257.738.738 0 0 0-.214.031h-.002l-.003.001a.95.95 0 0 0-.483.305.802.802 0 0 0-.2.517zM2.684 5.149a1.283 1.283 0 0 0-.525-.133c-.03 0-.06.002-.089.005h-.008a1.112 1.112 0 0 0-.698.285.935.935 0 0 0-.327.656v.005a.86.86 0 0 0 .131.507c.061.103.143.197.235.278.295-.627.755-1.16 1.281-1.603zM13.886 8.22c0-.56-.207-1.122-.543-1.574-.67-.908-1.71-1.5-2.791-1.829l-.008-.003a8.924 8.924 0 0 0-2.556-.373 8.96 8.96 0 0 0-2.57.375c-1.082.334-2.125.921-2.793 1.831a2.68 2.68 0 0 0-.538 1.581c0 .207.027.414.083.615.122.452.36.855.669 1.206.307.352.685.652 1.083.897.088.053.176.104.266.153 1.155.627 2.484.902 3.803.902.224 0 .448-.008.67-.024 1.329-.107 2.663-.488 3.742-1.268.344-.248.662-.546.913-.886.253-.34.438-.72.52-1.133v-.002c.034-.154.05-.31.05-.468zm1.05-2.227a.816.816 0 0 0-.103-.398l-.002-.001v-.002a.984.984 0 0 0-.418-.426 1.239 1.239 0 0 0-.592-.146c-.188 0-.375.04-.541.122.528.446.99.981 1.29 1.612.096-.082.178-.181.24-.292a.981.981 0 0 0 .125-.47z"/>
</svg>
