<svg xmlns="http://www.w3.org/2000/svg" width="15" height="15" viewBox="0 0 15 15">
    <g fill="#7D7098" fill-rule="nonzero">
        <path d="M7.954 7.3V.421A.425.425 0 0 0 7.52 0a.425.425 0 0 0-.433.421v6.88c-1.003.196-1.763 1.06-1.763 2.095 0 1.035.76 1.9 1.763 2.096v3.062c0 .234.192.421.433.421.24 0 .433-.187.433-.42v-3.063c1.003-.197 1.762-1.06 1.762-2.096 0-1.032-.756-1.9-1.762-2.096zm-.433 3.39c-.734 0-1.33-.58-1.33-1.294 0-.714.596-1.294 1.33-1.294.734 0 1.33.58 1.33 1.294 0 .714-.596 1.294-1.33 1.294zM2.655 3.77V.421A.425.425 0 0 0 2.223 0a.425.425 0 0 0-.433.421v3.35C.787 3.966.027 4.83.027 5.865c0 1.035.76 1.9 1.763 2.096v6.592c0 .234.192.421.433.421.24 0 .432-.187.432-.42V7.957c1.004-.196 1.763-1.06 1.763-2.095 0-1.036-.76-1.896-1.763-2.093zm-.432 3.39c-.734 0-1.33-.58-1.33-1.294 0-.714.596-1.294 1.33-1.294.734 0 1.33.58 1.33 1.294 0 .714-.6 1.294-1.33 1.294zM13.22 3.77V.421A.425.425 0 0 0 12.787 0a.425.425 0 0 0-.433.421v3.35c-1.003.196-1.763 1.06-1.763 2.095 0 1.035.76 1.9 1.763 2.096v6.595c0 .234.192.421.433.421.24 0 .433-.187.433-.42v-6.6c1.003-.196 1.762-1.06 1.762-2.095 0-1.036-.756-1.896-1.762-2.093zm-.433 3.39c-.734 0-1.33-.58-1.33-1.294 0-.714.596-1.294 1.33-1.294.734 0 1.33.58 1.33 1.294 0 .714-.596 1.294-1.33 1.294z"/>
    </g>
</svg>
