<svg xmlns="http://www.w3.org/2000/svg" width="22" height="26" viewBox="0 0 22 26"><g><g><path fill="#fff" d="M17.841 24.554H4.149c-1.421 0-2.574-.892-2.597-1.992l1.5-16.065h2.53v2.18c0 .398.336.716.756.716s.756-.318.756-.717V6.497h7.797v2.18c0 .398.336.716.756.716s.755-.318.755-.717V6.497h2.53l1.506 16.065c-.022 1.1-1.18 1.992-2.597 1.992zM10.995 1.436c2.12 0 3.848 1.616 3.893 3.62H7.102c.045-2.004 1.773-3.62 3.893-3.62zm10.95 21.039L20.377 5.71c-.033-.372-.363-.654-.75-.654h-3.224C16.358 2.26 13.95 0 10.995 0 8.04 0 5.632 2.26 5.588 5.056H2.363c-.392 0-.716.282-.75.654L.046 22.475c0 .021-.006.042-.006.064C.04 24.447 1.882 26 4.149 26h13.693c2.267 0 4.108-1.553 4.108-3.461 0-.022 0-.043-.005-.064z"/></g></g></svg>