<svg xmlns="http://www.w3.org/2000/svg" width="14" height="14" viewBox="0 0 14 14"><g><g opacity="1" transform="matrix(-1 0 0 1 14 0)"><g opacity=".2"><path fill="#fff" d="M11.998 0H5.5A1.5 1.5 0 0 0 4 1.5v2.999a.5.5 0 1 0 1 0v-3a.5.5 0 0 1 .5-.5h6.498a.5.5 0 0 1 .5.5v10.998a.5.5 0 0 1-.5.5H5.5a.5.5 0 0 1-.5-.5v-3a.5.5 0 1 0-1 0v3a1.5 1.5 0 0 0 1.5 1.5h6.498a1.5 1.5 0 0 0 1.5-1.5V1.5a1.5 1.5 0 0 0-1.5-1.5z"/></g><g opacity=".2"><path fill="#fff" d="M9.997 6.493H1.706l1.646-1.646a.5.5 0 0 0-.707-.707l-2.5 2.5a.5.5 0 0 0 0 .707l2.5 2.5a.5.5 0 1 0 .707-.708L1.706 7.493h8.29a.5.5 0 1 0 0-1z"/></g></g></g></svg>