<svg xmlns="http://www.w3.org/2000/svg" width="16" height="16" viewBox="0 0 16 16"><g><g><g><path fill="#fff" d="M8.005 14.555a6.558 6.558 0 0 1-6.55-6.55 6.558 6.558 0 0 1 6.55-6.55 6.558 6.558 0 0 1 6.55 6.55 6.558 6.558 0 0 1-6.55 6.55zM8 0C3.589 0 0 3.589 0 8s3.589 8 8 8 8-3.589 8-8-3.589-8-8-8z"/></g><g><path fill="#fff" d="M8 3.39a.97.97 0 0 0 0 1.94.97.97 0 0 0 0-1.94z"/></g><g><path fill="#fff" d="M7.997 6.79a.727.727 0 0 0-.727.727v4.364a.727.727 0 1 0 1.454 0V7.517a.727.727 0 0 0-.727-.727z"/></g></g></g></svg>