<svg xmlns="http://www.w3.org/2000/svg" width="16" height="28" viewBox="0 0 16 28"><g><g><g><path fill="#fff" d="M14.715 24.5H1.295V3h13.42zM8 27.054a.938.938 0 0 1-.93-.946c0-.523.416-.946.93-.946s.93.423.93.946a.938.938 0 0 1-.93.946zM6.036 1.364h3.928c.125 0 .225.102.225.229 0 .126-.1.229-.225.229H6.036a.227.227 0 0 1-.225-.23c0-.126.1-.229.225-.229zM14.14 0H1.86C.837 0 0 .85 0 1.891v24.217C0 27.148.837 28 1.86 28h12.28c1.023 0 1.86-.85 1.86-1.891V1.89C16 .851 15.163 0 14.14 0z"/></g></g></g></svg>