<svg xmlns="http://www.w3.org/2000/svg" width="14" height="13" viewBox="0 0 14 13">
    <path fill="#FFB418" fill-rule="evenodd" d="M13.696 5.891a.947.947 0 0 0 .254-.997.99.99 0 0 0-.81-.662l-3.39-.478a.442.442 0 0 1-.334-.235L7.901.542A1.001 1.001 0 0 0 7 0c-.385 0-.73.208-.901.542L4.584 3.52a.442.442 0 0 1-.334.235l-3.39.478a.99.99 0 0 0-.81.662.947.947 0 0 0 .254.998l2.452 2.317a.422.422 0 0 1 .128.38l-.578 3.272a.932.932 0 0 0 .219.789c.298.344.82.45 1.237.237l3.032-1.545a.467.467 0 0 1 .412 0l3.032 1.545a1.019 1.019 0 0 0 1.238-.237.931.931 0 0 0 .219-.789l-.58-3.272a.422.422 0 0 1 .129-.38l2.452-2.318z"/>
</svg>
