<svg xmlns="http://www.w3.org/2000/svg" width="16" height="14" viewBox="0 0 16 14"><g><g><path fill="#fff" d="M15.053 12.6c0 .257-.21.467-.469.467H1.406a.468.468 0 0 1-.468-.467V5.209l.747 2.234c.191.572.727.957 1.333.957h2.635v.467c0 .257.21.466.468.466H9.87a.468.468 0 0 0 .468-.466V8.4h2.635c.606 0 1.142-.385 1.333-.957l.748-2.234zM9.416 7.467V8.4H6.594v-.933zM14.881 2.8l-1.456 4.348a.468.468 0 0 1-.444.319h-2.637V7a.468.468 0 0 0-.469-.467h-3.75A.468.468 0 0 0 5.656 7v.467H3.02a.468.468 0 0 1-.444-.32L1.119 2.8zM5.656 1.405c0-.26.21-.472.468-.472h3.742a.47.47 0 0 1 .468.472v.472H5.656zm9.878.462h-4.253V1.4c0-.772-.63-1.4-1.406-1.4h-3.75C5.35 0 4.719.628 4.719 1.4v.467H.469A.469.469 0 0 0 0 2.333V12.6c0 .772.63 1.4 1.406 1.4h13.188c.775 0 1.406-.628 1.406-1.4V2.341c-.018-.306-.207-.473-.466-.474z"/></g></g></svg>