<svg xmlns="http://www.w3.org/2000/svg" width="22" height="17" viewBox="0 0 22 17">
    <path fill="#7D7098" fill-rule="evenodd" d="M21.764 5.636L16.265.235a.796.796 0 0 0-1.11 0 .765.765 0 0 0-.23.545v2.315h-5.5a.779.779 0 0 0-.785.772c0 .426.352.772.786.772h6.284a.779.779 0 0 0 .785-.772V2.643l3.603 3.539-3.603 3.539V8.497a.779.779 0 0 0-.785-.772H7.07V5.41a.779.779 0 0 0-.786-.771.793.793 0 0 0-.556.226L.23 10.266a.762.762 0 0 0 0 1.091l5.498 5.402a.793.793 0 0 0 .857.167c.293-.12.484-.4.484-.713v-2.315h5.499a.779.779 0 0 0 .785-.771.779.779 0 0 0-.785-.772H6.284a.779.779 0 0 0-.786.772v1.223l-3.602-3.538 3.602-3.54v1.225c0 .426.352.771.786.771h8.64v2.315c0 .426.352.772.786.772a.793.793 0 0 0 .555-.226l5.499-5.402a.762.762 0 0 0 0-1.09z"/>
</svg>
