<svg xmlns="http://www.w3.org/2000/svg" width="29" height="26" viewBox="0 0 29 26"><g><g><path fill="#fff" d="M25.402 19.304H3.574a1.945 1.945 0 0 1-1.95-1.933v-.645h25.727v.645a1.945 1.945 0 0 1-1.949 1.933zM3.575 1.648h21.842c1.072 0 1.95.868 1.95 1.94v11.52H1.624V3.589c0-1.072.873-1.94 1.95-1.94zM25.402.03H3.574C1.606.03 0 1.624 0 3.589v13.784a3.57 3.57 0 0 0 3.574 3.559h10.102v3.397H8.64a.807.807 0 0 0-.812.808c0 .45.36.81.812.81h11.696c.451 0 .812-.36.812-.81a.807.807 0 0 0-.812-.808H15.3v-3.397h10.102c1.968 0 3.574-1.594 3.574-3.559V3.59c0-1.965-1.6-3.559-3.574-3.559z"/></g></g></svg>