<svg xmlns="http://www.w3.org/2000/svg" width="17" height="17" viewBox="0 0 17 17">
    <path fill="#FFF" fill-rule="nonzero" d="M16.959 7.916h-.82v-3.75c0-.9-.736-1.63-1.64-1.63h-1.112L12.25.502a.985.985 0 0 0-1.338-.38L6.549 2.535H1.675c-.904 0-1.64.732-1.64 1.63v11.198c0 .9.736 1.63 1.64 1.63h12.823c.905 0 1.64-.73 1.64-1.63v-3.288h.821V7.916zm-2.46-4.729a.98.98 0 0 1 .973.87h-1.233l-.487-.87h.746zM11.23.693a.335.335 0 0 1 .446.127l1.811 3.237H5.146L11.23.693zm4.252 14.67c0 .54-.442.978-.985.978H1.675a.983.983 0 0 1-.984-.978V4.166c0-.54.442-.979.984-.979H5.37l-1.574.87H1.88a.327.327 0 0 0-.328.326c0 .18.147.326.328.326h13.603v3.208h-2.4a2.018 2.018 0 0 0-2.02 2.009v.14c0 1.108.906 2.009 2.02 2.009h2.4v3.288zm.82-3.94h-3.22a1.362 1.362 0 0 1-1.365-1.357v-.14c0-.749.612-1.357 1.365-1.357h3.22v2.853zm-2.215-1.4c0 .397-.324.72-.724.72a.722.722 0 0 1-.725-.72c0-.399.324-.72.725-.72.4 0 .724.322.724.72z"/>
</svg>
