<svg xmlns="http://www.w3.org/2000/svg" width="16" height="16" viewBox="0 0 16 16"><g><g><g><path fill="#a18dc8" d="M7.925 10.47c0 .353-.142.693-.397.942l-2.873 2.829a1.37 1.37 0 0 1-1.916 0l-.958-.943a1.319 1.319 0 0 1 0-1.886l2.874-2.828A1.356 1.356 0 0 1 5.748 8.2l1.076-1.059a2.743 2.743 0 0 0-3.127.5L.823 10.47a2.646 2.646 0 0 0-.793 1.886c0 .707.285 1.386.793 1.886l.958.942c.508.5 1.197.782 1.916.782a2.73 2.73 0 0 0 1.915-.782l2.874-2.828a2.636 2.636 0 0 0 .32-3.393l-.993.977c.074.168.112.348.112.53z"/></g><g><path fill="#a18dc8" d="M15.176 1.754L14.218.81A2.73 2.73 0 0 0 12.302.03a2.73 2.73 0 0 0-1.915.781L7.513 3.64a2.638 2.638 0 0 0-.418 3.24L8.12 5.87a1.314 1.314 0 0 1 .35-1.287l2.874-2.828a1.37 1.37 0 0 1 1.915 0l.958.943c.529.52.529 1.365 0 1.885l-2.873 2.829c-.342.337-.84.469-1.308.344L9.01 8.765a2.744 2.744 0 0 0 3.292-.412l2.874-2.828c.508-.5.793-1.178.793-1.886 0-.707-.285-1.385-.793-1.885z"/></g><g transform="rotate(-45 8 8)"><path fill="#a18dc8" d="M3.52 7.13l9.026.071.011 1.344-9.026-.071z"/></g></g></g></svg>