<svg xmlns="http://www.w3.org/2000/svg" width="24" height="24" viewBox="0 0 24 24"><g><g><g><path fill="#fff" d="M18.867 13.132a1.022 1.022 0 1 0-.001 2.044 1.022 1.022 0 0 0 .001-2.044zm4.16 2.994h-4.553c-1.064 0-1.93-.86-1.93-1.916v-.198c0-1.056.866-1.915 1.93-1.915h4.553zm-1.168 5.563c0 .762-.624 1.381-1.39 1.381H2.366c-.766 0-1.39-.62-1.39-1.381V5.881c0-.761.624-1.381 1.39-1.381h5.215L5.359 5.728H2.655a.462.462 0 0 0-.463.46c0 .254.207.46.463.46H21.86v4.528H18.47a2.848 2.848 0 0 0-2.853 2.837v.198a2.848 2.848 0 0 0 2.853 2.836h3.388zM15.849.979a.472.472 0 0 1 .63.179l2.554 4.58H7.266zm4.616 3.52c.71 0 1.29.54 1.368 1.229H20.1L19.416 4.5zm3.478 6.677h-1.158V5.881a2.312 2.312 0 0 0-2.316-2.302h-1.568L17.296.71a1.39 1.39 0 0 0-1.89-.536l-6.16 3.405h-6.88A2.312 2.312 0 0 0 .05 5.88v15.808a2.312 2.312 0 0 0 2.316 2.302h18.103a2.312 2.312 0 0 0 2.316-2.302v-4.643h1.158z"/></g></g></g></svg>