<svg xmlns="http://www.w3.org/2000/svg" width="15" height="17" viewBox="0 0 15 17">
    <g fill="#FFF" fill-rule="nonzero">
        <path d="M14.417 2.923L9.164.117c-.498-.266-1.183-.061-1.453.43L4.638 6.18H.901a.836.836 0 0 0-.851.84v9.115c0 .47.374.839.851.839H12.84a.836.836 0 0 0 .851-.84v-2.13h.353a.326.326 0 0 0 .332-.328V11.24a.326.326 0 0 0-.332-.328h-.353V8.515c0-.39-.29-.737-.664-.82l1.827-3.338a1.066 1.066 0 0 0-.436-1.434zM10.68 1.674L7.4 7.675h-.935l3.509-6.37.706.369zM8.313.854a.411.411 0 0 1 .54-.163l.519.287-3.654 6.697H4.576L8.313.855zM.693 7c0-.061.084-.164.187-.164h3.384l-.456.82H.88c-.062 0-.124 0-.187.02V7zm12.312 9.135a.185.185 0 0 1-.187.185H.88a.185.185 0 0 1-.187-.185V8.515c0-.102.084-.184.187-.184h11.917c.104 0 .187.082.187.184v2.396h-1.266a.99.99 0 0 0-.997.984v1.126a.99.99 0 0 0 .997.983h1.287v2.13zm.664-4.567h.021v1.782h-1.972a.326.326 0 0 1-.332-.328v-1.126c0-.185.145-.328.332-.328h1.951zm.582-7.538l-1.994 3.646h-4.11l3.114-5.673 2.823 1.515c.208.082.27.328.167.512z"/>
        <path d="M12.984 3.722l-.166-.082a.915.915 0 0 0-1.204.348l-.208.39a.852.852 0 0 0-.062.676c.062.225.228.41.436.512l.166.082c.125.061.27.102.415.102a.936.936 0 0 0 .79-.45l.207-.39a.911.911 0 0 0-.374-1.188zm-.228.881l-.208.39a.236.236 0 0 1-.311.081l-.166-.102c-.042-.02-.083-.082-.104-.123-.02-.062-.02-.123.02-.164l.208-.39c.042-.06.125-.122.208-.122.041 0 .062 0 .104.02l.166.082a.316.316 0 0 1 .083.328z"/>
    </g>
</svg>
