<svg xmlns="http://www.w3.org/2000/svg" width="24" height="27" viewBox="0 0 24 27"><g><g><path fill="#fff" d="M22.801 6.4l-3.189 5.79h-6.577l4.983-9.01 4.517 2.407c.333.13.432.52.266.813zm-.907 11.97v2.831h-3.147a.519.519 0 0 1-.53-.52v-1.79c0-.292.232-.52.53-.52zm-1.086 7.255a.295.295 0 0 1-.299.293H1.41a.295.295 0 0 1-.3-.293V13.524c0-.163.134-.293.3-.293h19.067c.166 0 .299.13.299.293v3.806h-2.026c-.897 0-1.595.716-1.595 1.561v1.79c0 .878.73 1.56 1.595 1.56h2.059zM1.11 11.117c0-.098.133-.26.299-.26h5.414l-.73 1.3H1.408c-.1 0-.2 0-.3.033zm12.19-9.76c.167-.292.565-.422.864-.26l.83.456L9.15 12.19H7.322zm3.798 1.302L11.84 12.19h-1.497l5.623-10.117zm5.969 1.984L14.663.186c-.798-.422-1.894-.097-2.326.684L7.421 9.815h-5.98c-.763 0-1.361.586-1.361 1.334v14.476c0 .748.598 1.334 1.362 1.334h19.1c.764 0 1.362-.586 1.362-1.334v-3.383h.565a.52.52 0 0 0 .531-.52V17.85a.52.52 0 0 0-.531-.52h-.565v-3.806c0-.618-.465-1.171-1.063-1.301l2.923-5.303a1.687 1.687 0 0 0-.697-2.277z"/></g></g></svg>