<svg xmlns="http://www.w3.org/2000/svg" width="16" height="13" viewBox="0 0 16 13"><g><g><g><path fill="#a18dc8" d="M14.935 5.992a.816.816 0 0 0-.102-.397l-.002-.002v-.002a.984.984 0 0 0-.418-.425 1.239 1.239 0 0 0-.592-.146c-.188 0-.375.04-.541.122.528.445.99.981 1.29 1.611.096-.081.178-.18.24-.292a.981.981 0 0 0 .125-.469zM13.886 8.22c0-.56-.207-1.122-.543-1.575-.67-.907-1.71-1.498-2.791-1.828l-.008-.003a8.924 8.924 0 0 0-2.556-.373 8.96 8.96 0 0 0-2.57.375c-1.082.333-2.125.92-2.793 1.83v.001a2.68 2.68 0 0 0-.538 1.58c0 .208.027.414.083.616.122.452.36.855.668 1.206.308.352.686.652 1.084.897.088.053.176.103.266.153 1.155.626 2.484.901 3.803.901.224 0 .448-.008.67-.023 1.329-.107 2.663-.488 3.742-1.268.344-.248.662-.547.913-.887.253-.34.438-.72.52-1.133v-.001c.034-.155.05-.311.05-.468zM2.684 5.148a1.289 1.289 0 0 0-.525-.132c-.03 0-.06.001-.089.004h-.008a1.115 1.115 0 0 0-.698.284.927.927 0 0 0-.327.653v.004a.852.852 0 0 0 .131.504c.061.103.143.196.235.277.295-.624.755-1.154 1.281-1.594zm9.492-3.352c0 .017 0 .034.002.052v.003a.83.83 0 0 0 .275.569.89.89 0 0 0 .591.242h.006c.016.002.032.002.047.002a.903.903 0 0 0 .6-.24.83.83 0 0 0 .28-.573v-.002a.835.835 0 0 0-.276-.65.925.925 0 0 0-.622-.257.738.738 0 0 0-.214.03h-.002l-.003.002a.95.95 0 0 0-.483.305.802.802 0 0 0-.2.517zm3.788 4.095a1.881 1.881 0 0 1-.329 1.15c-.193.287-.46.528-.768.691.02.15.03.302.03.453 0 .812-.287 1.61-.789 2.25-.928 1.2-2.351 1.908-3.789 2.264v.001a10.23 10.23 0 0 1-2.348.274 9.512 9.512 0 0 1-3.453-.635v-.001h-.001c-1.139-.457-2.224-1.183-2.89-2.246a3.585 3.585 0 0 1-.554-1.901c0-.152.01-.303.032-.453-.3-.164-.56-.397-.752-.675A1.952 1.952 0 0 1 0 6.045V6.04c0-.517.232-1.008.59-1.37.36-.36.85-.597 1.377-.597h.022a2.23 2.23 0 0 1 .948.13h.001l.001.001c.215.088.429.194.619.341.062-.031.129-.067.204-.095 1.153-.664 2.494-.92 3.8-.994.011-.63.091-1.288.407-1.865.262-.48.719-.852 1.262-.982h.005c.207-.04.415-.058.623-.058.552 0 1.097.127 1.607.326.226-.332.549-.59.927-.736l.004-.002.004-.001c.222-.068.456-.107.692-.107.248 0 .499.044.733.146h.001l.004.002c.337.126.621.359.823.648a1.756 1.756 0 0 1 .31 1.195l-.002.001v.004c-.04.462-.28.868-.621 1.157-.343.291-.787.467-1.243.467-.074 0-.147-.004-.22-.014a1.867 1.867 0 0 1-1.185-.563 1.715 1.715 0 0 1-.51-1.195l.002-.066c-.424-.184-.875-.337-1.323-.336-.065 0-.13.003-.195.01a1.014 1.014 0 0 0-.799.532v.002c-.229.434-.275.942-.282 1.447 1.286.081 2.58.381 3.714 1.016h.002l.016.009.098.052a2.16 2.16 0 0 1 .254-.179 2.136 2.136 0 0 1 1.16-.334c.18 0 .361.023.537.067l.008.002h.006v.001c.415.103.791.335 1.074.648.282.313.472.71.51 1.14zM5.19 8.325a.988.988 0 0 1-.693-.935.88.88 0 0 1 .047-.284v-.002c.112-.341.413-.59.757-.659h.003a.947.947 0 0 1 .21-.024c.259 0 .51.104.698.273a.916.916 0 0 1 .316.739c0 .271-.13.51-.32.678a1.07 1.07 0 0 1-.7.27.925.925 0 0 1-.314-.055h-.004zm5.79 1.468a.434.434 0 0 1 .032.302.527.527 0 0 1-.117.212.788.788 0 0 1-.175.141c-.126.075-.26.127-.36.185l-.003.002-.004.002a5.984 5.984 0 0 1-2.465.539c-.941 0-1.88-.236-2.677-.758a.446.446 0 0 1-.183-.178.504.504 0 0 1 .013-.513.443.443 0 0 1 .222-.18.457.457 0 0 1 .394-.001c.061.024.117.057.17.09.104.068.2.139.284.172l.003.001.003.002a4.16 4.16 0 0 0 1.792.393 4.76 4.76 0 0 0 2.363-.634.443.443 0 0 1 .24-.071c.1 0 .195.031.276.083.081.051.15.123.193.211zm.497-2.395a.99.99 0 0 1-.201.588.956.956 0 0 1-.51.353l-.004.002h-.003a.933.933 0 0 1-.296.048c-.232 0-.46-.082-.642-.221a.942.942 0 0 1-.361-.575V7.59l-.001-.002a.843.843 0 0 1-.02-.182c0-.205.071-.402.19-.565a.989.989 0 0 1 .476-.356h.001l.002-.001c.11-.04.226-.06.34-.06.209 0 .414.062.588.175.17.112.31.275.38.477v.004l.002.003c.04.103.06.21.06.315z"/></g></g></g></svg>