<svg xmlns="http://www.w3.org/2000/svg" width="16" height="16" viewBox="0 0 16 16">
    <g fill="#A18DC8" fill-rule="evenodd">
        <path d="M7.926 10.474c.001.354-.142.693-.397.943l-2.873 2.828a1.37 1.37 0 0 1-1.915 0l-.958-.943a1.319 1.319 0 0 1 0-1.885l2.873-2.829a1.356 1.356 0 0 1 1.094-.384l1.076-1.059a2.743 2.743 0 0 0-3.128.5L.825 10.474a2.646 2.646 0 0 0-.793 1.885c0 .708.285 1.386.793 1.886l.958.943c.508.5 1.197.78 1.915.78.719 0 1.408-.28 1.916-.78l2.873-2.829a2.636 2.636 0 0 0 .32-3.392l-.993.977c.074.167.112.347.112.53zM15.175 1.755l-.958-.943a2.731 2.731 0 0 0-1.915-.78c-.719 0-1.408.28-1.916.78L7.513 3.64a2.638 2.638 0 0 0-.419 3.241l1.027-1.01a1.314 1.314 0 0 1 .35-1.287l2.873-2.829a1.37 1.37 0 0 1 1.915 0l.958.943c.53.52.53 1.365 0 1.885l-2.873 2.829c-.342.337-.84.469-1.308.344L9.01 8.766a2.744 2.744 0 0 0 3.292-.411l2.873-2.829c.508-.5.793-1.178.793-1.885 0-.708-.285-1.386-.793-1.886z"/>
        <path d="M4.345 10.528l6.433-6.332.958.942-6.433 6.333z"/>
    </g>
</svg>
