<svg xmlns="http://www.w3.org/2000/svg" width="17" height="21" viewBox="0 0 17 21"><g><g><g><path fill="#fff" d="M5.293 5.191c0-.012.004-.025.004-.033.134-3.001 2.197-3.324 3.08-3.324h.049c1.094.025 2.954.486 3.08 3.324 0 .012 0 .025.004.033.004.03.288 2.876-1.001 4.374-.51.594-1.192.887-2.087.896h-.04c-.892-.009-1.577-.302-2.084-.896-1.284-1.49-1.009-4.349-1.005-4.374zm3.044 6.4h.129c1.187-.021 2.147-.452 2.856-1.277 1.56-1.816 1.3-4.93 1.272-5.228-.101-2.23-1.122-3.298-1.964-3.796C10.002.918 9.268.717 8.45.7h-.069c-.45 0-1.332.075-2.179.573-.85.498-1.888 1.566-1.989 3.813-.028.298-.287 3.412 1.272 5.228.705.825 1.665 1.256 2.852 1.277z"/></g><g><path fill="#fff" d="M16.718 16.755v-.013c0-.033-.004-.067-.004-.104-.025-.829-.077-2.767-1.835-3.386l-.041-.013c-1.827-.481-3.346-1.57-3.362-1.582a.535.535 0 0 0-.762.138.576.576 0 0 0 .134.787c.069.05 1.681 1.21 3.698 1.745.944.348 1.05 1.39 1.078 2.344 0 .038 0 .071.004.105.004.377-.02.958-.085 1.293-.656.385-3.229 1.716-7.142 1.716-3.896 0-6.485-1.335-7.145-1.72-.065-.335-.093-.917-.085-1.293 0-.034.004-.067.004-.105.028-.954.133-1.996 1.077-2.344 2.018-.536 3.63-1.7 3.699-1.745a.576.576 0 0 0 .133-.787.535.535 0 0 0-.761-.138c-.016.012-1.527 1.1-3.362 1.582a.497.497 0 0 0-.04.012C.161 13.871.108 15.81.084 16.634c0 .037 0 .07-.004.104v.013c-.004.217-.008 1.335.207 1.896.04.109.113.2.21.264.122.083 3.034 2 7.907 2 4.874 0 7.786-1.92 7.908-2a.556.556 0 0 0 .21-.264c.203-.557.199-1.674.195-1.892z"/></g></g></g></svg>