<svg xmlns="http://www.w3.org/2000/svg" width="17" height="18" viewBox="0 0 17 18">
    <g fill="#7D7098" fill-rule="evenodd">
        <path fill-rule="nonzero" d="M16.63 17.297h-.768V6.1a.944.944 0 0 0-.94-.945h-1.715a.944.944 0 0 0-.94.945v11.196h-1.949v-6.123a.944.944 0 0 0-.94-.946H7.663a.944.944 0 0 0-.94.946v6.123H4.775v-3.171a.944.944 0 0 0-.94-.945H2.12a.944.944 0 0 0-.94.945v3.17H.37a.35.35 0 0 0-.349.352.35.35 0 0 0 .35.352h16.258a.35.35 0 0 0 .35-.352.35.35 0 0 0-.35-.351zm-12.555 0H1.88v-3.171c0-.134.108-.242.24-.242h1.716c.132 0 .24.108.24.242v3.17zm5.544 0H7.423v-6.123c0-.134.108-.242.24-.242h1.715c.133 0 .24.108.24.242v6.123zm5.543 0h-2.196V6.1c0-.134.108-.242.24-.242h1.716c.132 0 .24.108.24.242v11.196z"/>
        <path d="M15.861.37a.351.351 0 0 0-.367-.37h-2.133a.35.35 0 0 0-.35.352.35.35 0 0 0 .35.351h1.307L11.21 4.18 9.906 2.868a.349.349 0 0 0-.495 0l-6.288 6.32a.353.353 0 0 0 .247.6c.09 0 .18-.034.247-.103l6.041-6.071 1.304 1.31a.349.349 0 0 0 .495 0L15.162 1.2V2.39a.35.35 0 0 0 .35.352.35.35 0 0 0 .35-.352V.387.37z"/>
        <ellipse cx="2.191" cy="10.663" rx="1" ry="1"/>
    </g>
</svg>
