<svg xmlns="http://www.w3.org/2000/svg" width="33" height="24" viewBox="0 0 33 24"><g><g><path fill="#fff" d="M31.693 22.271a23.263 23.263 0 0 0-11.743-1.596 16.45 16.45 0 0 1 5.485-.834c1.346.007 2.69.113 4.02.316a.64.64 0 0 0 .736-.646V3.304h1.527zm-6.59-20.926c1.274.004 2.545.147 3.79.427V18.78a27.809 27.809 0 0 0-3.458-.232c-4.36 0-6.961 1.183-8.31 2.062V4.513c2.288-2.586 5.587-3.168 7.977-3.168zM7.535 18.555a27.816 27.816 0 0 0-3.477.225V1.772a17.44 17.44 0 0 1 3.79-.427c2.391 0 5.69.556 7.978 3.168l.02 16.103c-1.33-.879-3.925-2.062-8.31-2.062zM1.278 22.27V3.304h1.528v16.213a.643.643 0 0 0 .735.647 27.668 27.668 0 0 1 3.995-.323 16.41 16.41 0 0 1 5.46.834A23.259 23.259 0 0 0 1.277 22.27zm31.06-20.26H30.165v-.75a.646.646 0 0 0-.46-.646A17.816 17.816 0 0 0 25.096.02c-2.557 0-6.04.582-8.617 3.232C13.922.576 10.413.02 7.862.02a17.816 17.816 0 0 0-4.608.595.646.646 0 0 0-.46.646v.744H.638c-.353 0-.639.29-.639.646V23.3c0 .357.286.647.64.647.109 0 .217-.03.312-.084.064-.033 6.457-3.569 15.38-1.293h.154a.633.633 0 0 0 .153 0c8.95-2.295 15.341 1.234 15.38 1.293a.633.633 0 0 0 .639 0 .648.648 0 0 0 .32-.556V2.658a.643.643 0 0 0-.64-.647z"/></g></g></svg>