<svg xmlns="http://www.w3.org/2000/svg" width="20" height="12" viewBox="0 0 20 12">
    <path fill="#7C67A4" fill-rule="nonzero" d="M12.5 1.2c2.053 0 3.726 1.591 3.75 3.555a2.17 2.17 0 0 0-.02.22l-.031.882.869.29c1.006.337 1.682 1.243 1.682 2.253 0 1.324-1.12 2.4-2.5 2.4H3.75c-1.378 0-2.5-1.076-2.5-2.4 0-1.31 1.101-2.379 2.46-2.4.06.008.12.015.182.019l.95.06.312-.862C5.505 4.25 6.448 3.6 7.5 3.6c.122 0 .256.014.437.045l.875.15.436-.743A3.777 3.777 0 0 1 12.5 1.2zm0-1.2c-1.873 0-3.485 1-4.342 2.463A3.907 3.907 0 0 0 7.5 2.4c-1.638 0-3.016 1.015-3.527 2.421C3.9 4.816 3.827 4.8 3.75 4.8 1.68 4.8 0 6.412 0 8.4 0 10.387 1.68 12 3.75 12h12.5C18.32 12 20 10.387 20 8.4c0-1.573-1.057-2.897-2.522-3.387.002-.072.022-.14.022-.213 0-2.65-2.239-4.8-5-4.8z"/>
</svg>
