<svg xmlns="http://www.w3.org/2000/svg" width="20" height="19" viewBox="0 0 20 19"><g><g><g><path fill="#fff" d="M18.017 7.455l-.575.575-.788-.789.575-.575a.558.558 0 0 1 .788.789zM13.972 11.5l-.786-.788 2.672-2.682.786.788zm-1.569 0l.794.789-.304.3-1.19.395.397-1.182zm1.255 5.745c0 .307-.25.557-.558.557H1.943a.558.558 0 0 1-.558-.557V1.562c0-.307.25-.557.558-.557h8.368v2.787c0 .308.25.557.558.557h2.79v4.323l-1.647 1.646-.788.788a.557.557 0 0 0-.135.218L10.3 13.69a.557.557 0 0 0 .706.705l2.367-.788a.557.557 0 0 0 .218-.135l.067-.067zm-2.24-16.24c.106 0 .309-.018.49.163l1.577 1.577c.177.177.163.37.163.49h-2.23zm7.387 4.873a1.674 1.674 0 0 0-2.365 0l-1.677 1.678V3.14c0-.447-.174-.867-.49-1.183L12.697.38a1.661 1.661 0 0 0-1.183-.49H1.942C1.02-.11.27.64.27 1.562v15.683c0 .922.75 1.672 1.672 1.672h11.149c.922 0 1.672-.75 1.672-1.672v-4.957l4.042-4.045a1.671 1.671 0 0 0 0-2.365z"/></g><g><path fill="#fff" d="M10.861 5.47H3.057a.557.557 0 0 0 0 1.115h7.804a.557.557 0 0 0 0-1.115z"/></g><g><path fill="#fff" d="M8.632 7.7H3.057a.557.557 0 0 0 0 1.115h5.575a.557.557 0 0 0 0-1.115z"/></g><g><path fill="#fff" d="M8.632 9.93H3.057a.557.557 0 0 0 0 1.115h5.575a.557.557 0 0 0 0-1.115z"/></g><g><path fill="#fff" d="M8.632 12.16H3.057a.557.557 0 0 0 0 1.115h5.575a.557.557 0 0 0 0-1.115z"/></g><g><path fill="#fff" d="M10.862 15.57H7.517a.557.557 0 1 0 0 1.115h3.345a.557.557 0 1 0 0-1.115z"/></g></g></g></svg>