<svg xmlns="http://www.w3.org/2000/svg" width="20" height="20" viewBox="0 0 20 20"><g><g><g><path fill="#7d7098" d="M18.663 7.958l-.607.608-.834-.834.608-.608a.59.59 0 0 1 .833.834zm-4.26 4.236l-.826-.826 2.809-2.812.826.827zm-1.655.01l.83.829-.317.316-1.243.415.414-1.243zm1.315 6.038a.587.587 0 0 1-.586.586H1.757a.587.587 0 0 1-.585-.586V1.758c0-.323.263-.586.586-.586h8.789v2.93c0 .323.262.586.586.586h2.93V9.23l-1.73 1.73-.827.829a.586.586 0 0 0-.142.229l-.829 2.486a.586.586 0 0 0 .741.741l2.486-.829a.586.586 0 0 0 .23-.141l.07-.071zm-2.344-17.07c.11 0 .324-.02.515.172L13.89 3.01c.186.186.172.391.172.517h-2.344zm7.764 5.122a1.76 1.76 0 0 0-2.486 0l-1.763 1.764V3.415c0-.47-.182-.91-.515-1.243L13.062.515A1.746 1.746 0 0 0 11.82 0H1.758A1.76 1.76 0 0 0 0 1.758v16.484C0 19.212.789 20 1.758 20h11.719a1.76 1.76 0 0 0 1.757-1.758v-5.21l4.25-4.252a1.757 1.757 0 0 0 0-2.486z"/></g><g><path fill="#7d7098" d="M11.13 5.86H2.925a.586.586 0 0 0 0 1.172h8.203a.586.586 0 0 0 0-1.172z"/></g><g><path fill="#7d7098" d="M8.785 8.2h-5.86a.586.586 0 0 0 0 1.172h5.86a.586.586 0 0 0 0-1.172z"/></g><g><path fill="#7d7098" d="M8.785 10.55h-5.86a.586.586 0 0 0 0 1.172h5.86a.586.586 0 0 0 0-1.172z"/></g><g><path fill="#7d7098" d="M8.785 12.89h-5.86a.586.586 0 0 0 0 1.172h5.86a.586.586 0 0 0 0-1.172z"/></g><g><path fill="#7d7098" d="M11.132 16.48H7.616a.586.586 0 1 0 0 1.172h3.516a.586.586 0 1 0 0-1.172z"/></g></g></g></svg>