<svg xmlns="http://www.w3.org/2000/svg" width="26" height="17" viewBox="0 0 26 17"><g><g><g><path fill="#fff" d="M24.395 14.31a1.56 1.56 0 0 1-1.557 1.558H3.107a1.56 1.56 0 0 1-1.558-1.558V2.886a1.56 1.56 0 0 1 1.558-1.558h19.73a1.56 1.56 0 0 1 1.558 1.558V14.31zM22.838.29H3.106A2.6 2.6 0 0 0 .51 2.886V14.31a2.6 2.6 0 0 0 2.596 2.596h19.732a2.6 2.6 0 0 0 2.596-2.596V2.886A2.6 2.6 0 0 0 22.838.29z"/></g><g><path fill="#fff" d="M1.549 6.513V4.441h22.846v2.072zM24.915 3.4H1.029a.52.52 0 0 0-.519.52v3.115c0 .286.233.52.52.52h23.885a.52.52 0 0 0 .52-.52V3.919a.52.52 0 0 0-.52-.519z"/></g><g><path fill="#fff" d="M10.38 10.67H4.15a.52.52 0 0 0 0 1.039h6.23a.52.52 0 0 0 0-1.039z"/></g><g><path fill="#fff" d="M10.38 12.75H4.15a.52.52 0 0 0 0 1.039h6.23a.52.52 0 0 0 0-1.039z"/></g><g><path fill="#fff" d="M21.286 12.225a.519.519 0 0 1-.52.518h-1.038a.519.519 0 0 1-.52-.518V11.19c0-.286.233-.518.52-.518h1.038c.287 0 .52.232.52.518zm-.52-2.595h-1.038a1.56 1.56 0 0 0-1.558 1.558v1.038a1.56 1.56 0 0 0 1.558 1.558h1.038a1.56 1.56 0 0 0 1.558-1.558v-1.038a1.56 1.56 0 0 0-1.558-1.558z"/></g></g></g></svg>