<svg xmlns="http://www.w3.org/2000/svg" width="26" height="20" viewBox="0 0 26 20"><g><g><g><path fill="#fff" d="M14.22 10.183h5.816v2.892h-5.815zm-.415 3.706h6.647c.25 0 .415-.165.415-.412V9.772c0-.247-.166-.412-.415-.412h-6.647c-.249 0-.415.165-.415.412v3.705c0 .247.166.412.415.412z"/></g><g><path fill="#fff" d="M2.595 8.543H5.92c.249 0 .415-.164.415-.411 0-.247-.166-.412-.415-.412H2.595c-.249 0-.415.165-.415.412 0 .247.166.411.415.411z"/></g><g><path fill="#fff" d="M7.575 8.543H10.9c.249 0 .415-.164.415-.411 0-.247-.166-.412-.415-.412H7.575c-.249 0-.415.165-.415.412 0 .247.166.411.415.411z"/></g><g><path fill="#fff" d="M2.595 10.183h5.4c.25 0 .416-.164.416-.411 0-.247-.166-.412-.415-.412h-5.4c-.25 0-.416.165-.416.412 0 .247.166.411.415.411z"/></g><g><path fill="#fff" d="M10.902 9.36H9.655c-.249 0-.415.165-.415.412 0 .247.166.411.415.411h1.247c.249 0 .415-.164.415-.411 0-.247-.166-.412-.415-.412z"/></g><g><path fill="#fff" d="M24.593 5.285L23.348 18.49a.836.836 0 0 1-.914.74l-19.14-2.139a.835.835 0 0 1-.748-.74h18.726c.913 0 1.66-.74 1.66-1.646V4.298l.955.082c.208 0 .415.123.54.288.125.164.208.411.166.617zM1.341 14.71V6.07H22.11v8.641a.83.83 0 0 1-.831.823H2.172a.83.83 0 0 1-.83-.823zM2.171.714H21.28c.457 0 .83.368.83.817v.409H1.342V1.53c0-.45.374-.817.83-.817zm-.83 2.06H22.11v2.461H1.34zm23.72 1.48a1.551 1.551 0 0 0-1.122-.617l-.997-.12v-1.98A1.66 1.66 0 0 0 21.28-.11H2.172A1.66 1.66 0 0 0 .51 1.537v13.175c0 .744.504 1.376 1.19 1.579a1.608 1.608 0 0 0 1.469 1.632l19.191 2.141h.166c.831 0 1.579-.617 1.662-1.4l1.246-13.216a1.59 1.59 0 0 0-.374-1.194z"/></g></g></g></svg>