<svg xmlns="http://www.w3.org/2000/svg" width="21" height="17" viewBox="0 0 21 17"><g><g><g><path fill="#7d7098" d="M11.529 8.652h4.89v2.434h-4.89zm-.35 3.116h5.59c.209 0 .349-.138.349-.346V8.306c0-.208-.14-.346-.35-.346H11.18c-.21 0-.349.138-.349.346v3.116c0 .208.14.346.35.346z"/></g><g><path fill="#7d7098" d="M1.75 7.272h2.794c.21 0 .35-.138.35-.346 0-.208-.14-.346-.35-.346H1.749c-.21 0-.349.138-.349.346 0 .208.14.346.35.346z"/></g><g><path fill="#7d7098" d="M5.94 7.272h2.794c.21 0 .35-.138.35-.346 0-.208-.14-.346-.35-.346H5.939c-.21 0-.349.138-.349.346 0 .208.14.346.35.346z"/></g><g><path fill="#7d7098" d="M1.75 8.652h4.54c.21 0 .35-.138.35-.346 0-.208-.14-.346-.35-.346H1.75c-.21 0-.35.138-.35.346 0 .208.14.346.35.346z"/></g><g><path fill="#7d7098" d="M8.737 7.96H7.69c-.21 0-.349.138-.349.346 0 .208.14.346.35.346h1.047c.21 0 .35-.138.35-.346 0-.208-.14-.346-.35-.346z"/></g><g><path fill="#7d7098" d="M20.26 4.538l-1.048 11.12a.703.703 0 0 1-.768.624L2.34 14.481a.703.703 0 0 1-.628-.624h15.754c.768 0 1.397-.624 1.397-1.386V3.707l.804.069c.174 0 .349.104.454.243.104.138.174.346.14.52zM.7 12.471V5.196h17.456v7.275a.698.698 0 0 1-.699.693H1.396a.698.698 0 0 1-.697-.693zM1.397.693h16.06c.383 0 .698.309.698.686v.343H.699V1.38c0-.377.314-.686.698-.686zM.699 2.425h17.456v2.069H.699zM20.645 3.67a1.304 1.304 0 0 0-.943-.52l-.839-.1V1.385C18.863.623 18.234 0 17.466 0H1.397C.63 0 0 .623 0 1.385v11.079c0 .625.424 1.157 1.001 1.327-.018.7.517 1.309 1.235 1.373l16.138 1.8h.14c.699 0 1.327-.519 1.397-1.176L20.96 4.674a1.338 1.338 0 0 0-.314-1.004z"/></g></g></g></svg>