<svg xmlns="http://www.w3.org/2000/svg" width="14" height="20" viewBox="0 0 14 20">
    <g fill="#7D7098" fill-rule="evenodd">
        <path fill-rule="nonzero" d="M13.86 5.377L8.873.116A.365.365 0 0 0 8.607 0h-7.03C.725 0 .03.732.03 1.633v16.734c0 .9.694 1.633 1.548 1.633h10.844c.854 0 1.548-.732 1.548-1.633V5.657a.407.407 0 0 0-.11-.28zM8.983 1.35L12.69 5.26H9.78c-.44 0-.8-.377-.8-.842V1.35zm4.239 17.017c0 .465-.358.842-.799.842H1.578c-.44 0-.799-.377-.799-.842V1.633c0-.465.358-.842.799-.842h6.654v3.628c0 .9.695 1.633 1.548 1.633h3.44v12.315z"/>
        <path d="M9.998 10.04H4.002a.385.385 0 0 0-.375.395c0 .218.168.395.375.395h5.996a.385.385 0 0 0 .375-.395.385.385 0 0 0-.375-.395zM9.998 11.805H4.002a.385.385 0 0 0-.375.395c0 .219.168.396.375.396h5.996a.385.385 0 0 0 .375-.396.385.385 0 0 0-.375-.395zM9.998 13.57H4.002a.385.385 0 0 0-.375.396c0 .218.168.395.375.395h5.996a.385.385 0 0 0 .375-.395.385.385 0 0 0-.375-.396zM8.05 15.336H4.001a.385.385 0 0 0-.375.395c0 .219.168.396.375.396h4.047a.385.385 0 0 0 .375-.396.385.385 0 0 0-.375-.395z"/>
    </g>
</svg>
